<?xml version="1.0" encoding="UTF-8" standalone="no"?>
<!DOCTYPE svg PUBLIC "-//W3C//DTD SVG 1.0//EN" "http://www.w3.org/TR/2001/PR-SVG-20010719/DTD/svg10.dtd">
<svg width="24cm" height="14cm" viewBox="49 100 466 262" xmlns="http://www.w3.org/2000/svg" xmlns:xlink="http://www.w3.org/1999/xlink">
  <g>
    <rect style="fill: #9ff0f0" x="364" y="197" width="150" height="76"/>
    <rect style="fill: none; fill-opacity:0; stroke-width: 2; stroke: #000000" x="364" y="197" width="150" height="76"/>
    <text font-size="15.8044" style="fill: #000000;text-anchor:middle;font-family:Arial;font-style:normal;font-weight:normal" x="439" y="229.544">
      <tspan x="439" y="229.544">5 internal models</tspan>
      <tspan x="439" y="249.3">"RMER"</tspan>
    </text>
  </g>
  <g>
    <rect style="fill: #ffffff" x="89.475" y="112" width="127.05" height="38"/>
    <rect style="fill: none; fill-opacity:0; stroke-width: 2; stroke: #000000" x="89.475" y="112" width="127.05" height="38"/>
    <text font-size="12.8" style="fill: #000000;text-anchor:middle;font-family:sans-serif;font-style:normal;font-weight:normal" x="153" y="134.9">
      <tspan x="153" y="134.9">Wilson &amp; Walker</tspan>
    </text>
  </g>
  <g>
    <rect style="fill: #ffffff" x="96" y="162.4" width="114.85" height="38"/>
    <rect style="fill: none; fill-opacity:0; stroke-width: 2; stroke: #000000" x="96" y="162.4" width="114.85" height="38"/>
    <text font-size="12.8" style="fill: #000000;text-anchor:middle;font-family:sans-serif;font-style:normal;font-weight:normal" x="153.425" y="185.3">
      <tspan x="153.425" y="185.3">Sparks</tspan>
    </text>
  </g>
  <g>
    <rect style="fill: #ffffff" x="96.5" y="214.6" width="114.85" height="38"/>
    <rect style="fill: none; fill-opacity:0; stroke-width: 2; stroke: #000000" x="96.5" y="214.6" width="114.85" height="38"/>
    <text font-size="12.8" style="fill: #000000;text-anchor:middle;font-family:sans-serif;font-style:normal;font-weight:normal" x="153.925" y="237.5">
      <tspan x="153.925" y="237.5">Mastin</tspan>
    </text>
  </g>
  <g>
    <rect style="fill: #ffffff" x="95" y="268.8" width="114.85" height="38"/>
    <rect style="fill: none; fill-opacity:0; stroke-width: 2; stroke: #000000" x="95" y="268.8" width="114.85" height="38"/>
    <text font-size="12.8" style="fill: #000000;text-anchor:middle;font-family:sans-serif;font-style:normal;font-weight:normal" x="152.425" y="291.7">
      <tspan x="152.425" y="291.7">Gudmundsson</tspan>
    </text>
  </g>
  <g>
    <rect style="fill: #ffffff" x="50.3" y="323" width="214.3" height="38"/>
    <rect style="fill: none; fill-opacity:0; stroke-width: 2; stroke: #000000" x="50.3" y="323" width="214.3" height="38"/>
    <text font-size="12.8" style="fill: #000000;text-anchor:middle;font-family:sans-serif;font-style:normal;font-weight:normal" x="157.45" y="345.9">
      <tspan x="157.45" y="345.9">mod. Degruyter &amp; Bonadonna</tspan>
    </text>
  </g>
  <text font-size="12.8" style="fill: #000000;text-anchor:start;font-family:sans-serif;font-style:normal;font-weight:normal" x="153.425" y="181.4">
    <tspan x="153.425" y="181.4"></tspan>
  </text>
  <text font-size="12.8" style="fill: #000000;text-anchor:start;font-family:sans-serif;font-style:normal;font-weight:normal" x="152.425" y="287.8">
    <tspan x="152.425" y="287.8"></tspan>
  </text>
  <text font-size="12.8" style="fill: #000000;text-anchor:start;font-family:sans-serif;font-style:normal;font-weight:normal" x="152.425" y="287.8">
    <tspan x="152.425" y="287.8"></tspan>
  </text>
  <g>
    <polyline style="fill: none; fill-opacity:0; stroke-width: 2; stroke: #000000" points="213.424,128 311,128 311,208.5 350,208.5 "/>
    <polygon style="fill: #000000" points="350,213.5 360,208.5 350,203.5 "/>
    <polygon style="fill: none; fill-opacity:0; stroke-width: 2; stroke: #000000" points="350,213.5 360,208.5 350,203.5 "/>
  </g>
  <g>
    <polyline style="fill: none; fill-opacity:0; stroke-width: 2; stroke: #000000" points="210.85,181.4 296,181.4 296,221 350,221 "/>
    <polygon style="fill: #000000" points="350,226 360,221 350,216 "/>
    <polygon style="fill: none; fill-opacity:0; stroke-width: 2; stroke: #000000" points="350,226 360,221 350,216 "/>
  </g>
  <g>
    <polyline style="fill: none; fill-opacity:0; stroke-width: 2; stroke: #000000" points="209.85,287.8 301,287.8 301,246 350,246 "/>
    <polygon style="fill: #000000" points="350,251 360,246 350,241 "/>
    <polygon style="fill: none; fill-opacity:0; stroke-width: 2; stroke: #000000" points="350,251 360,246 350,241 "/>
  </g>
  <g>
    <polyline style="fill: none; fill-opacity:0; stroke-width: 2; stroke: #000000" points="253,342 315,342 315,259.5 350,259.5 "/>
    <polygon style="fill: #000000" points="350,264.5 360,259.5 350,254.5 "/>
    <polygon style="fill: none; fill-opacity:0; stroke-width: 2; stroke: #000000" points="350,264.5 360,259.5 350,254.5 "/>
  </g>
  <g>
    <line style="fill: none; fill-opacity:0; stroke-width: 2; stroke: #000000" x1="211.35" y1="233.6" x2="350" y2="233.044"/>
    <polygon style="fill: #000000" points="350.02,238.044 360,233.004 349.98,228.044 "/>
    <polygon style="fill: none; fill-opacity:0; stroke-width: 2; stroke: #000000" points="350.02,238.044 360,233.004 349.98,228.044 "/>
  </g>
  <g>
    <ellipse style="fill: #ffffff" cx="280" cy="340.5" rx="12" ry="10.5"/>
    <ellipse style="fill: none; fill-opacity:0; stroke-width: 2; stroke: #000000" cx="280" cy="340.5" rx="12" ry="10.5"/>
    <line style="fill: none; fill-opacity:0; stroke-width: 2; stroke: #000000" x1="271.515" y1="333.075" x2="288.485" y2="347.925"/>
    <line style="fill: none; fill-opacity:0; stroke-width: 2; stroke: #000000" x1="271.515" y1="347.925" x2="288.485" y2="333.075"/>
  </g>
  <g>
    <ellipse style="fill: #ffffff" cx="253.5" cy="126.7" rx="12" ry="10.5"/>
    <ellipse style="fill: none; fill-opacity:0; stroke-width: 2; stroke: #000000" cx="253.5" cy="126.7" rx="12" ry="10.5"/>
    <line style="fill: none; fill-opacity:0; stroke-width: 2; stroke: #000000" x1="245.015" y1="119.275" x2="261.985" y2="134.125"/>
    <line style="fill: none; fill-opacity:0; stroke-width: 2; stroke: #000000" x1="245.015" y1="134.125" x2="261.985" y2="119.275"/>
  </g>
  <g>
    <ellipse style="fill: #ffffff" cx="253" cy="179.9" rx="12" ry="10.5"/>
    <ellipse style="fill: none; fill-opacity:0; stroke-width: 2; stroke: #000000" cx="253" cy="179.9" rx="12" ry="10.5"/>
    <line style="fill: none; fill-opacity:0; stroke-width: 2; stroke: #000000" x1="244.515" y1="172.475" x2="261.485" y2="187.325"/>
    <line style="fill: none; fill-opacity:0; stroke-width: 2; stroke: #000000" x1="244.515" y1="187.325" x2="261.485" y2="172.475"/>
  </g>
  <g>
    <ellipse style="fill: #ffffff" cx="255.5" cy="233.7" rx="12" ry="10.5"/>
    <ellipse style="fill: none; fill-opacity:0; stroke-width: 2; stroke: #000000" cx="255.5" cy="233.7" rx="12" ry="10.5"/>
    <line style="fill: none; fill-opacity:0; stroke-width: 2; stroke: #000000" x1="247.015" y1="226.275" x2="263.985" y2="241.125"/>
    <line style="fill: none; fill-opacity:0; stroke-width: 2; stroke: #000000" x1="247.015" y1="241.125" x2="263.985" y2="226.275"/>
  </g>
  <g>
    <ellipse style="fill: #ffffff" cx="254" cy="287.9" rx="12" ry="10.5"/>
    <ellipse style="fill: none; fill-opacity:0; stroke-width: 2; stroke: #000000" cx="254" cy="287.9" rx="12" ry="10.5"/>
    <line style="fill: none; fill-opacity:0; stroke-width: 2; stroke: #000000" x1="245.515" y1="280.475" x2="262.485" y2="295.325"/>
    <line style="fill: none; fill-opacity:0; stroke-width: 2; stroke: #000000" x1="245.515" y1="295.325" x2="262.485" y2="280.475"/>
  </g>
  <text font-size="12.8" style="fill: #000000;text-anchor:start;font-family:sans-serif;font-style:normal;font-weight:normal" x="239" y="112.2">
    <tspan x="239" y="112.2">wt fac.</tspan>
  </text>
  <text font-size="12.8" style="fill: #000000;text-anchor:start;font-family:sans-serif;font-style:normal;font-weight:normal" x="236.5" y="163.4">
    <tspan x="236.5" y="163.4">wt fac.</tspan>
  </text>
  <text font-size="12.8" style="fill: #000000;text-anchor:start;font-family:sans-serif;font-style:normal;font-weight:normal" x="239" y="218.6">
    <tspan x="239" y="218.6">wt fac.</tspan>
  </text>
  <text font-size="12.8" style="fill: #000000;text-anchor:start;font-family:sans-serif;font-style:normal;font-weight:normal" x="239.5" y="273.8">
    <tspan x="239.5" y="273.8">wt fac.</tspan>
  </text>
  <text font-size="12.8" style="fill: #000000;text-anchor:start;font-family:sans-serif;font-style:normal;font-weight:normal" x="267" y="326">
    <tspan x="267" y="326">wt fac.</tspan>
  </text>
  <text font-size="12.8" style="fill: #000000;text-anchor:start;font-family:sans-serif;font-style:normal;font-weight:normal" x="439" y="235">
    <tspan x="439" y="235"></tspan>
  </text>
</svg>
