<?xml version="1.0" encoding="UTF-8" standalone="no"?>
<!DOCTYPE svg PUBLIC "-//W3C//DTD SVG 1.0//EN" "http://www.w3.org/TR/2001/PR-SVG-20010719/DTD/svg10.dtd">
<svg width="31cm" height="14cm" viewBox="418 351 613 264" xmlns="http://www.w3.org/2000/svg" xmlns:xlink="http://www.w3.org/1999/xlink">
  <g>
    <rect style="fill: #ffff00" x="420" y="353" width="193" height="80"/>
    <rect style="fill: none; fill-opacity:0; stroke-width: 2; stroke: #000000" x="420" y="353" width="193" height="80"/>
    <text font-size="15.8044" style="fill: #000000;text-anchor:middle;font-family:sans-serif;font-style:normal;font-weight:normal" x="516.5" y="387.894">
      <tspan x="516.5" y="387.894">Conventional models</tspan>
      <tspan x="516.5" y="407.65">"CMER"</tspan>
    </text>
  </g>
  <g>
    <rect style="fill: #98ffa8" x="626.5" y="353.566" width="193" height="81.2667"/>
    <rect style="fill: none; fill-opacity:0; stroke-width: 2; stroke: #000000" x="626.5" y="353.566" width="193" height="81.2667"/>
    <text font-size="15.8044" style="fill: #000000;text-anchor:middle;font-family:sans-serif;font-style:normal;font-weight:normal" x="723" y="389.094">
      <tspan x="723" y="389.094">Manually added</tspan>
      <tspan x="723" y="408.849">MER</tspan>
    </text>
  </g>
  <g>
    <rect style="fill: #cb9ce0" x="833.1" y="354.2" width="197.8" height="81.2667"/>
    <rect style="fill: none; fill-opacity:0; stroke-width: 2; stroke: #000000" x="833.1" y="354.2" width="197.8" height="81.2667"/>
    <text font-size="15.8044" style="fill: #000000;text-anchor:middle;font-family:sans-serif;font-style:normal;font-weight:normal" x="932" y="389.728">
      <tspan x="932" y="389.728">Experimental systems</tspan>
      <tspan x="932" y="409.483">"exp. MER"</tspan>
    </text>
  </g>
  <g>
    <polyline style="fill: none; fill-opacity:0; stroke-width: 3; stroke: #000000" points="516.5,433 516.5,480.75 669.25,480.75 669.25,517 "/>
    <polygon style="fill: #000000" points="664.25,517 669.25,527 674.25,517 "/>
    <polygon style="fill: none; fill-opacity:0; stroke-width: 3; stroke: #000000" points="664.25,517 669.25,527 674.25,517 "/>
  </g>
  <g>
    <polyline style="fill: none; fill-opacity:0; stroke-width: 3; stroke: #000000" points="932,435.467 932,481.983 775.75,481.983 775.75,517 "/>
    <polygon style="fill: #000000" points="770.75,517 775.75,527 780.75,517 "/>
    <polygon style="fill: none; fill-opacity:0; stroke-width: 3; stroke: #000000" points="770.75,517 775.75,527 780.75,517 "/>
  </g>
  <g>
    <rect style="fill: #ffeb67" x="616" y="528.5" width="213" height="86"/>
    <rect style="fill: none; fill-opacity:0; stroke-width: 2; stroke: #000000" x="616" y="528.5" width="213" height="86"/>
    <text font-size="15.8044" style="fill: #0000ff;text-anchor:middle;font-family:sans-serif;font-style:normal;font-weight:700" x="722.5" y="566.394">
      <tspan x="722.5" y="566.394">Best estimate</tspan>
      <tspan x="722.5" y="586.15">FMER</tspan>
    </text>
  </g>
  <g>
    <ellipse style="fill: #ffffff" cx="591.5" cy="482" rx="12" ry="10.5"/>
    <ellipse style="fill: none; fill-opacity:0; stroke-width: 2; stroke: #000000" cx="591.5" cy="482" rx="12" ry="10.5"/>
    <line style="fill: none; fill-opacity:0; stroke-width: 2; stroke: #000000" x1="583.015" y1="474.575" x2="599.985" y2="489.425"/>
    <line style="fill: none; fill-opacity:0; stroke-width: 2; stroke: #000000" x1="583.015" y1="489.425" x2="599.985" y2="474.575"/>
  </g>
  <text font-size="12.8" style="fill: #000000;text-anchor:start;font-family:sans-serif;font-style:normal;font-weight:normal" x="574.5" y="467.5">
    <tspan x="574.5" y="467.5">wt fac.</tspan>
  </text>
  <g>
    <ellipse style="fill: #ffffff" cx="862" cy="481.2" rx="12" ry="10.5"/>
    <ellipse style="fill: none; fill-opacity:0; stroke-width: 2; stroke: #000000" cx="862" cy="481.2" rx="12" ry="10.5"/>
    <line style="fill: none; fill-opacity:0; stroke-width: 2; stroke: #000000" x1="853.515" y1="473.775" x2="870.485" y2="488.625"/>
    <line style="fill: none; fill-opacity:0; stroke-width: 2; stroke: #000000" x1="853.515" y1="488.625" x2="870.485" y2="473.775"/>
  </g>
  <text font-size="12.8" style="fill: #000000;text-anchor:start;font-family:sans-serif;font-style:normal;font-weight:normal" x="846" y="466.7">
    <tspan x="846" y="466.7">wt fac.</tspan>
  </text>
  <g>
    <line style="fill: none; fill-opacity:0; stroke-width: 3; stroke: #000000" x1="723" y1="434.834" x2="722.561" y2="517"/>
    <polygon style="fill: #000000" points="717.561,516.973 722.508,527 727.561,517.027 "/>
    <polygon style="fill: none; fill-opacity:0; stroke-width: 3; stroke: #000000" points="717.561,516.973 722.508,527 727.561,517.027 "/>
  </g>
  <g>
    <ellipse style="fill: #ffffff" cx="723" cy="488.9" rx="12" ry="10.5"/>
    <ellipse style="fill: none; fill-opacity:0; stroke-width: 2; stroke: #000000" cx="723" cy="488.9" rx="12" ry="10.5"/>
    <line style="fill: none; fill-opacity:0; stroke-width: 2; stroke: #000000" x1="714.515" y1="481.475" x2="731.485" y2="496.325"/>
    <line style="fill: none; fill-opacity:0; stroke-width: 2; stroke: #000000" x1="714.515" y1="496.325" x2="731.485" y2="481.475"/>
  </g>
  <text font-size="12.8" style="fill: #000000;text-anchor:start;font-family:sans-serif;font-style:normal;font-weight:normal" x="706.5" y="475.2">
    <tspan x="706.5" y="475.2">wt fac.</tspan>
  </text>
</svg>
