<?xml version="1.0" encoding="UTF-8" standalone="no"?>
<!DOCTYPE svg PUBLIC "-//W3C//DTD SVG 1.0//EN" "http://www.w3.org/TR/2001/PR-SVG-20010719/DTD/svg10.dtd">
<svg width="18cm" height="18cm" viewBox="132 72 353 356" xmlns="http://www.w3.org/2000/svg" xmlns:xlink="http://www.w3.org/1999/xlink">
  <g>
    <rect style="fill: #ffffff" x="133.9" y="73.3" width="350" height="353"/>
    <rect style="fill: none; fill-opacity:0; stroke-width: 2; stroke: #0000ff" x="133.9" y="73.3" width="350" height="353"/>
    <text font-size="12.8" style="fill: #000000;text-anchor:middle;font-family:sans-serif;font-style:normal;font-weight:normal" x="308.9" y="253.7">
      <tspan x="308.9" y="253.7"></tspan>
    </text>
  </g>
  <g>
    <polygon style="fill: #98ffa8" points="312.759,320.9 423.696,320.9 423.696,399.035 300.433,399.035 300.433,328.714 "/>
    <polygon style="fill: none; fill-opacity:0; stroke-width: 2; stroke: #000000" points="312.759,320.9 423.696,320.9 423.696,399.035 300.433,399.035 300.433,328.714 "/>
    <text font-size="12.8" style="fill: #000000;text-anchor:middle;font-family:sans-serif;font-style:normal;font-weight:normal" x="365.146" y="349.921">
      <tspan x="365.146" y="349.921">volc_database.ini</tspan>
      <tspan x="365.146" y="365.921">...</tspan>
      <tspan x="365.146" y="381.921">vent parameters</tspan>
    </text>
  </g>
  <g>
    <rect style="fill: #d8e5e5" x="296.8" y="95.6" width="132" height="100"/>
    <rect style="fill: none; fill-opacity:0; stroke-width: 2; stroke-dasharray: 4; stroke: #000000" x="296.8" y="95.6" width="132" height="100"/>
    <text font-size="20.32" style="fill: #000000;text-anchor:middle;font-family:sans-serif;font-style:normal;font-weight:normal" x="362.8" y="151.75">
      <tspan x="362.8" y="151.75">FoxSet</tspan>
    </text>
  </g>
  <g>
    <polygon style="fill: #daf0f7" points="165.668,85.6 272.484,85.6 272.484,163.735 153.8,163.735 153.8,93.4135 "/>
    <polygon style="fill: none; fill-opacity:0; stroke-width: 2; stroke: #000000" points="165.668,85.6 272.484,85.6 272.484,163.735 153.8,163.735 153.8,93.4135 "/>
    <text font-size="12.8" style="fill: #000000;text-anchor:middle;font-family:sans-serif;font-style:normal;font-weight:normal" x="216.109" y="114.621">
      <tspan x="216.109" y="114.621">volcano_list.ini</tspan>
      <tspan x="216.109" y="130.621">...</tspan>
      <tspan x="216.109" y="146.621">volcanoes</tspan>
    </text>
  </g>
  <g>
    <polygon style="fill: #daf0f7" points="164.668,337.6 271.484,337.6 271.484,415.735 152.8,415.735 152.8,345.414 "/>
    <polygon style="fill: none; fill-opacity:0; stroke-width: 2; stroke: #000000" points="164.668,337.6 271.484,337.6 271.484,415.735 152.8,415.735 152.8,345.414 "/>
    <text font-size="12.8" style="fill: #000000;text-anchor:middle;font-family:sans-serif;font-style:normal;font-weight:normal" x="215.109" y="366.621">
      <tspan x="215.109" y="366.621">Cam.ini</tspan>
      <tspan x="215.109" y="382.621">...</tspan>
      <tspan x="215.109" y="398.621">volcanoes</tspan>
    </text>
  </g>
  <g>
    <polygon style="fill: #daf0f7" points="164.668,253.6 271.484,253.6 271.484,331.735 152.8,331.735 152.8,261.414 "/>
    <polygon style="fill: none; fill-opacity:0; stroke-width: 2; stroke: #000000" points="164.668,253.6 271.484,253.6 271.484,331.735 152.8,331.735 152.8,261.414 "/>
    <text font-size="12.8" style="fill: #000000;text-anchor:middle;font-family:sans-serif;font-style:normal;font-weight:normal" x="215.109" y="282.621">
      <tspan x="215.109" y="282.621">Cband.ini</tspan>
      <tspan x="215.109" y="298.621">...</tspan>
      <tspan x="215.109" y="314.621">volcanoes</tspan>
    </text>
  </g>
  <g>
    <polygon style="fill: #daf0f7" points="166.668,169.6 273.484,169.6 273.484,247.735 154.8,247.735 154.8,177.414 "/>
    <polygon style="fill: none; fill-opacity:0; stroke-width: 2; stroke: #000000" points="166.668,169.6 273.484,169.6 273.484,247.735 154.8,247.735 154.8,177.414 "/>
    <text font-size="12.8" style="fill: #000000;text-anchor:middle;font-family:sans-serif;font-style:normal;font-weight:normal" x="217.109" y="198.621">
      <tspan x="217.109" y="198.621">Cband.ini</tspan>
      <tspan x="217.109" y="214.621">...</tspan>
      <tspan x="217.109" y="230.621">volcanoes</tspan>
    </text>
  </g>
  <g>
    <path style="fill: #000000" d="M 466.923 313.343 L 454.757,313.336 L 454.807,311.498 L 456.631,311.471 C 455.838,311.065 455.276,310.614 454.959,310.197 C 454.718,309.766 454.554,309.32 454.467,308.859 C 454.582,308.201 454.849,307.515 455.179,306.737 L 457.071,307.492 C 456.851,308.011 456.708,308.515 456.642,309.005 C 456.652,309.48 456.801,309.849 457.027,310.204 C 457.407,310.53 457.772,310.779 458.122,310.951 C 458.963,311.19 459.774,311.275 460.571,311.283 L 466.853,311.289 L 466.923,313.343z"/>
    <path style="fill: #000000" d="M 462.926 297.242 L 463.24,295.116 C 464.507,295.513 465.358,296.226 466.069,297.046 C 466.733,298.034 467.104,299.156 467.106,300.428 C 467.07,302.343 466.611,303.702 465.528,304.702 C 464.445,305.701 462.876,306.236 460.885,306.215 C 458.908,306.271 457.381,305.764 456.213,304.633 C 455.151,303.641 454.568,302.241 454.494,300.585 C 454.511,298.992 455.061,297.695 456.129,296.619 C 457.289,295.604 458.781,295.084 460.758,295.028 C 460.926,295.076 461.171,295.109 461.325,295.08 L 461.275,304.074 C 462.701,304.043 463.746,303.687 464.412,303.004 C 465.079,302.322 465.471,301.453 465.436,300.426 C 465.459,299.706 465.266,299.106 464.92,298.535 C 464.588,298.042 463.949,297.606 462.926,297.242 L 462.926,297.242z"/>
    <path style="fill: #ffffff" d="M 459.591 303.995 L 459.663,297.223 C 458.65,297.335 457.911,297.634 457.341,297.98 C 456.689,298.739 456.282,299.532 456.149,300.511 C 456.247,301.447 456.56,302.262 457.166,302.943 C 457.848,303.609 458.64,304.015 459.591,303.995z"/>
    <path style="fill: #000000" d="M 466.873 292.044 L 456.301,292.054 L 456.327,293.878 L 454.734,293.861 L 454.722,292.114 L 453.45,292.116 C 452.73,292.093 452.087,292.056 451.659,291.898 C 451.155,291.755 450.776,291.429 450.429,290.858 C 450.112,290.441 449.89,289.688 449.87,288.738 C 449.922,288.171 450.036,287.514 450.059,286.794 L 451.864,287.089 C 451.874,287.564 451.793,287.977 451.698,288.313 C 451.751,289.018 451.915,289.464 452.112,289.666 C 452.415,290.006 452.919,290.149 453.61,290.019 L 454.728,290.046 L 454.754,287.656 L 456.347,287.673 L 456.322,290.063 L 466.894,290.052 L 466.873,292.044z"/>
    <path style="fill: #000000" d="M 452.534 286.008 L 450.159,286.059 L 450.165,283.991 L 452.541,283.94 L 452.534,286.008z"/>
    <path style="fill: #000000" d="M 466.922 285.992 L 454.771,286.062 L 454.777,283.994 L 466.943,284.001 L 466.922,285.992z"/>
    <path style="fill: #000000" d="M 466.915 280.905 L 454.749,280.899 L 454.799,279.06 L 456.623,279.034 C 455.83,278.627 455.268,278.177 454.951,277.76 C 454.71,277.328 454.546,276.882 454.459,276.421 C 454.574,275.764 454.841,275.077 455.171,274.299 L 457.063,275.055 C 456.843,275.573 456.7,276.077 456.634,276.567 C 456.644,277.042 456.793,277.411 457.019,277.766 C 457.399,278.092 457.764,278.341 458.114,278.513 C 458.955,278.752 459.766,278.837 460.563,278.846 L 466.845,278.851 L 466.915,280.905z"/>
    <path style="fill: #000000" d="M 471.59 274.933 L 470.088,274.978 L 470.064,261.387 L 471.566,261.342 L 471.59,274.933z"/>
    <path style="fill: #000000" d="M 462.516 252.16 L 462.767,250.124 C 464.174,250.415 465.164,251.023 465.952,251.828 C 466.692,252.801 467.14,253.909 467.219,255.167 C 467.154,256.928 466.681,258.21 465.583,259.133 C 464.591,260.195 463.023,260.73 460.94,260.647 C 459.682,260.725 458.521,260.468 457.483,260.028 C 456.523,259.573 455.764,258.922 455.282,258.058 C 454.801,257.195 454.55,256.289 454.501,255.185 C 454.576,253.899 454.925,252.799 455.562,251.963 C 456.199,251.127 457.124,250.555 458.352,250.323 L 458.653,252.333 C 457.9,252.555 457.329,252.901 456.85,253.31 C 456.476,253.857 456.271,254.453 456.233,255.096 C 456.283,256.2 456.596,257.015 457.341,257.59 C 458.114,258.318 459.291,258.653 460.869,258.593 C 462.54,258.595 463.753,258.286 464.419,257.604 C 465.191,257.06 465.507,256.206 465.472,255.179 C 465.48,254.382 465.273,253.706 464.773,253.164 C 464.273,252.623 463.495,252.293 462.516,252.16 L 462.516,252.16z"/>
    <path style="fill: #000000" d="M 460.832 249.138 C 458.61,249.161 456.901,248.53 455.781,247.231 C 454.963,246.272 454.486,245.011 454.427,243.432 C 454.443,241.838 455.07,240.527 456.124,239.374 C 457.284,238.36 458.776,237.839 460.6,237.813 C 462.27,237.815 463.494,237.981 464.301,238.465 C 465.185,238.934 465.805,239.691 466.363,240.54 C 466.858,241.48 467.109,242.387 467.144,243.414 C 467.08,245.175 466.621,246.534 465.538,247.534 C 464.469,248.61 462.9,249.145 460.832,249.138 L 460.832,249.138z"/>
    <path style="fill: #ffffff" d="M 460.824 246.993 C 462.417,247.01 463.631,246.701 464.297,246.019 C 465.131,245.384 465.524,244.515 465.474,243.411 C 465.454,242.461 465.064,241.66 464.29,240.932 C 463.608,240.266 462.417,239.855 460.747,239.852 C 459.321,239.883 458.122,240.269 457.288,240.903 C 456.545,241.6 456.23,242.455 456.173,243.42 C 456.223,244.523 456.551,245.416 457.31,246.067 C 458.083,246.796 459.245,247.053 460.824,246.993z"/>
    <path style="fill: #000000" d="M 466.907 235.428 L 454.741,235.421 L 454.792,233.583 L 456.462,233.586 C 455.184,232.714 454.539,231.405 454.45,229.672 C 454.564,229.015 454.679,228.357 454.87,227.685 C 455.152,227.075 455.54,226.604 455.88,226.301 C 456.389,226.046 456.911,225.868 457.434,225.69 C 457.909,225.679 458.538,225.64 459.397,225.557 L 466.874,225.575 L 466.867,227.644 L 459.467,227.611 C 458.747,227.588 458.133,227.704 457.687,227.868 C 457.318,228.017 456.977,228.32 456.651,228.7 C 456.508,229.204 456.35,229.631 456.284,230.121 C 456.305,231.071 456.618,231.887 457.118,232.428 C 457.723,233.109 458.731,233.395 460.233,233.35 L 466.914,233.36 L 466.907,235.428z"/>
    <path style="fill: #000000" d="M 466.883 221.837 L 456.311,221.847 L 456.337,223.671 L 454.744,223.654 L 454.732,221.907 L 453.46,221.909 C 452.74,221.886 452.097,221.848 451.669,221.691 C 451.165,221.547 450.786,221.222 450.439,220.651 C 450.122,220.234 449.9,219.481 449.88,218.531 C 449.932,217.964 450.046,217.306 450.069,216.587 L 451.874,216.882 C 451.884,217.357 451.803,217.769 451.708,218.106 C 451.761,218.811 451.925,219.257 452.122,219.458 C 452.425,219.799 452.929,219.942 453.62,219.811 L 454.738,219.839 L 454.764,217.449 L 456.357,217.465 L 456.332,219.855 L 466.904,219.845 L 466.883,221.837z"/>
    <path style="fill: #000000" d="M 452.559 215.878 L 450.183,215.929 L 450.19,213.86 L 452.565,213.809 L 452.559,215.878z"/>
    <path style="fill: #000000" d="M 466.947 215.862 L 454.795,215.932 L 454.802,213.863 L 466.968,213.87 L 466.947,215.862z"/>
    <path style="fill: #000000" d="M 467.871 211.076 L 468.199,209.026 C 468.828,208.987 469.259,208.746 469.508,208.381 C 469.896,207.91 470.087,207.238 470.143,206.273 C 470.061,205.414 469.839,204.661 469.492,204.091 C 469.084,203.611 468.551,203.314 467.941,203.032 C 467.451,202.966 466.563,202.895 465.291,202.897 C 466.262,203.826 466.787,204.92 466.88,206.254 C 466.801,207.939 466.251,209.235 465.062,210.096 C 463.887,211.033 462.458,211.463 460.788,211.46 C 459.684,211.51 458.613,211.314 457.576,210.874 C 456.616,210.42 455.871,209.845 455.313,208.996 C 454.861,208.287 454.596,207.303 454.469,206.214 C 454.515,204.774 455.094,203.631 456.269,202.694 L 454.752,202.662 L 454.788,200.747 L 465.284,200.751 C 467.122,200.802 468.437,201.03 469.215,201.36 C 470.022,201.844 470.613,202.448 471.08,203.234 C 471.484,204.112 471.75,205.095 471.814,206.276 C 471.768,207.715 471.433,208.892 470.811,209.804 C 470.111,210.732 469.157,211.151 467.871,211.076 L 467.871,211.076z"/>
    <path style="fill: #ffffff" d="M 460.626 209.344 C 462.22,209.361 463.433,209.052 464.114,208.446 C 464.948,207.812 465.278,207.034 465.166,206.021 C 465.237,205.133 464.924,204.318 464.165,203.666 C 463.482,203 462.321,202.743 460.727,202.726 C 459.302,202.757 458.165,203.051 457.331,203.686 C 456.588,204.383 456.181,205.175 456.187,206.048 C 456.208,206.999 456.598,207.8 457.342,208.374 C 458.116,209.103 459.201,209.375 460.626,209.344z"/>
    <path style="fill: none; fill-opacity:0; stroke-width: 0.02; stroke-linecap: round; stroke: #000000" d="M 466.923 313.343 L 454.757,313.336 L 454.807,311.498 L 456.631,311.471 C 455.838,311.065 455.276,310.614 454.959,310.197 C 454.718,309.766 454.554,309.32 454.467,308.859 C 454.582,308.201 454.849,307.515 455.179,306.737 L 457.071,307.492 C 456.851,308.011 456.708,308.515 456.642,309.005 C 456.652,309.48 456.801,309.849 457.027,310.204 C 457.407,310.53 457.772,310.779 458.122,310.951 C 458.963,311.19 459.774,311.275 460.571,311.283 L 466.853,311.289 L 466.923,313.343"/>
    <path style="fill: none; fill-opacity:0; stroke-width: 0.02; stroke-linecap: round; stroke: #000000" d="M 462.926 297.242 L 463.24,295.116 C 464.507,295.513 465.358,296.226 466.069,297.046 C 466.733,298.034 467.104,299.156 467.106,300.428 C 467.07,302.343 466.611,303.702 465.528,304.702 C 464.445,305.701 462.876,306.236 460.885,306.215 C 458.908,306.271 457.381,305.764 456.213,304.633 C 455.151,303.641 454.568,302.241 454.494,300.585 C 454.511,298.992 455.061,297.695 456.129,296.619 C 457.289,295.604 458.781,295.084 460.758,295.028 C 460.926,295.076 461.171,295.109 461.325,295.08 L 461.275,304.074 C 462.701,304.043 463.746,303.687 464.412,303.004 C 465.079,302.322 465.471,301.453 465.436,300.426 C 465.459,299.706 465.266,299.106 464.92,298.535 C 464.588,298.042 463.949,297.606 462.926,297.242 L 462.926,297.242"/>
    <path style="fill: none; fill-opacity:0; stroke-width: 0.02; stroke-linecap: round; stroke: #000000" d="M 459.591 303.995 L 459.663,297.223 C 458.65,297.335 457.911,297.634 457.341,297.98 C 456.689,298.739 456.282,299.532 456.149,300.511 C 456.247,301.447 456.56,302.262 457.166,302.943 C 457.848,303.609 458.64,304.015 459.591,303.995 L 459.591,303.995"/>
    <path style="fill: none; fill-opacity:0; stroke-width: 0.02; stroke-linecap: round; stroke: #000000" d="M 466.873 292.044 L 456.301,292.054 L 456.327,293.878 L 454.734,293.861 L 454.722,292.114 L 453.45,292.116 C 452.73,292.093 452.087,292.056 451.659,291.898 C 451.155,291.755 450.776,291.429 450.429,290.858 C 450.112,290.441 449.89,289.688 449.87,288.738 C 449.922,288.171 450.036,287.514 450.059,286.794 L 451.864,287.089 C 451.874,287.564 451.793,287.977 451.698,288.313 C 451.751,289.018 451.915,289.464 452.112,289.666 C 452.415,290.006 452.919,290.149 453.61,290.019 L 454.728,290.046 L 454.754,287.656 L 456.347,287.673 L 456.322,290.063 L 466.894,290.052 L 466.873,292.044"/>
    <path style="fill: none; fill-opacity:0; stroke-width: 0.02; stroke-linecap: round; stroke: #000000" d="M 452.534 286.008 L 450.159,286.059 L 450.165,283.991 L 452.541,283.94 L 452.534,286.008"/>
    <path style="fill: none; fill-opacity:0; stroke-width: 0.02; stroke-linecap: round; stroke: #000000" d="M 466.922 285.992 L 454.771,286.062 L 454.777,283.994 L 466.943,284.001 L 466.922,285.992"/>
    <path style="fill: none; fill-opacity:0; stroke-width: 0.02; stroke-linecap: round; stroke: #000000" d="M 466.915 280.905 L 454.749,280.899 L 454.799,279.06 L 456.623,279.034 C 455.83,278.627 455.268,278.177 454.951,277.76 C 454.71,277.328 454.546,276.882 454.459,276.421 C 454.574,275.764 454.841,275.077 455.171,274.299 L 457.063,275.055 C 456.843,275.573 456.7,276.077 456.634,276.567 C 456.644,277.042 456.793,277.411 457.019,277.766 C 457.399,278.092 457.764,278.341 458.114,278.513 C 458.955,278.752 459.766,278.837 460.563,278.846 L 466.845,278.851 L 466.915,280.905"/>
    <path style="fill: none; fill-opacity:0; stroke-width: 0.02; stroke-linecap: round; stroke: #000000" d="M 471.59 274.933 L 470.088,274.978 L 470.064,261.387 L 471.566,261.342 L 471.59,274.933"/>
    <path style="fill: none; fill-opacity:0; stroke-width: 0.02; stroke-linecap: round; stroke: #000000" d="M 462.516 252.16 L 462.767,250.124 C 464.174,250.415 465.164,251.023 465.952,251.828 C 466.692,252.801 467.14,253.909 467.219,255.167 C 467.154,256.928 466.681,258.21 465.583,259.133 C 464.591,260.195 463.023,260.73 460.94,260.647 C 459.682,260.725 458.521,260.468 457.483,260.028 C 456.523,259.573 455.764,258.922 455.282,258.058 C 454.801,257.195 454.55,256.289 454.501,255.185 C 454.576,253.899 454.925,252.799 455.562,251.963 C 456.199,251.127 457.124,250.555 458.352,250.323 L 458.653,252.333 C 457.9,252.555 457.329,252.901 456.85,253.31 C 456.476,253.857 456.271,254.453 456.233,255.096 C 456.283,256.2 456.596,257.015 457.341,257.59 C 458.114,258.318 459.291,258.653 460.869,258.593 C 462.54,258.595 463.753,258.286 464.419,257.604 C 465.191,257.06 465.507,256.206 465.472,255.179 C 465.48,254.382 465.273,253.706 464.773,253.164 C 464.273,252.623 463.495,252.293 462.516,252.16 L 462.516,252.16"/>
    <path style="fill: none; fill-opacity:0; stroke-width: 0.02; stroke-linecap: round; stroke: #000000" d="M 460.832 249.138 C 458.61,249.161 456.901,248.53 455.781,247.231 C 454.963,246.272 454.486,245.011 454.427,243.432 C 454.443,241.838 455.07,240.527 456.124,239.374 C 457.284,238.36 458.776,237.839 460.6,237.813 C 462.27,237.815 463.494,237.981 464.301,238.465 C 465.185,238.934 465.805,239.691 466.363,240.54 C 466.858,241.48 467.109,242.387 467.144,243.414 C 467.08,245.175 466.621,246.534 465.538,247.534 C 464.469,248.61 462.9,249.145 460.832,249.138 L 460.832,249.138"/>
    <path style="fill: none; fill-opacity:0; stroke-width: 0.02; stroke-linecap: round; stroke: #000000" d="M 460.824 246.993 C 462.417,247.01 463.631,246.701 464.297,246.019 C 465.131,245.384 465.524,244.515 465.474,243.411 C 465.454,242.461 465.064,241.66 464.29,240.932 C 463.608,240.266 462.417,239.855 460.747,239.852 C 459.321,239.883 458.122,240.269 457.288,240.903 C 456.545,241.6 456.23,242.455 456.173,243.42 C 456.223,244.523 456.551,245.416 457.31,246.067 C 458.083,246.796 459.245,247.053 460.824,246.993 L 460.824,246.993"/>
    <path style="fill: none; fill-opacity:0; stroke-width: 0.02; stroke-linecap: round; stroke: #000000" d="M 466.907 235.428 L 454.741,235.421 L 454.792,233.583 L 456.462,233.586 C 455.184,232.714 454.539,231.405 454.45,229.672 C 454.564,229.015 454.679,228.357 454.87,227.685 C 455.152,227.075 455.54,226.604 455.88,226.301 C 456.389,226.046 456.911,225.868 457.434,225.69 C 457.909,225.679 458.538,225.64 459.397,225.557 L 466.874,225.575 L 466.867,227.644 L 459.467,227.611 C 458.747,227.588 458.133,227.704 457.687,227.868 C 457.318,228.017 456.977,228.32 456.651,228.7 C 456.508,229.204 456.35,229.631 456.284,230.121 C 456.305,231.071 456.618,231.887 457.118,232.428 C 457.723,233.109 458.731,233.395 460.233,233.35 L 466.914,233.36 L 466.907,235.428"/>
    <path style="fill: none; fill-opacity:0; stroke-width: 0.02; stroke-linecap: round; stroke: #000000" d="M 466.883 221.837 L 456.311,221.847 L 456.337,223.671 L 454.744,223.654 L 454.732,221.907 L 453.46,221.909 C 452.74,221.886 452.097,221.848 451.669,221.691 C 451.165,221.547 450.786,221.222 450.439,220.651 C 450.122,220.234 449.9,219.481 449.88,218.531 C 449.932,217.964 450.046,217.306 450.069,216.587 L 451.874,216.882 C 451.884,217.357 451.803,217.769 451.708,218.106 C 451.761,218.811 451.925,219.257 452.122,219.458 C 452.425,219.799 452.929,219.942 453.62,219.811 L 454.738,219.839 L 454.764,217.449 L 456.357,217.465 L 456.332,219.855 L 466.904,219.845 L 466.883,221.837"/>
    <path style="fill: none; fill-opacity:0; stroke-width: 0.02; stroke-linecap: round; stroke: #000000" d="M 452.559 215.878 L 450.183,215.929 L 450.19,213.86 L 452.565,213.809 L 452.559,215.878"/>
    <path style="fill: none; fill-opacity:0; stroke-width: 0.02; stroke-linecap: round; stroke: #000000" d="M 466.947 215.862 L 454.795,215.932 L 454.802,213.863 L 466.968,213.87 L 466.947,215.862"/>
    <path style="fill: none; fill-opacity:0; stroke-width: 0.02; stroke-linecap: round; stroke: #000000" d="M 467.871 211.076 L 468.199,209.026 C 468.828,208.987 469.259,208.746 469.508,208.381 C 469.896,207.91 470.087,207.238 470.143,206.273 C 470.061,205.414 469.839,204.661 469.492,204.091 C 469.084,203.611 468.551,203.314 467.941,203.032 C 467.451,202.966 466.563,202.895 465.291,202.897 C 466.262,203.826 466.787,204.92 466.88,206.254 C 466.801,207.939 466.251,209.235 465.062,210.096 C 463.887,211.033 462.458,211.463 460.788,211.46 C 459.684,211.51 458.613,211.314 457.576,210.874 C 456.616,210.42 455.871,209.845 455.313,208.996 C 454.861,208.287 454.596,207.303 454.469,206.214 C 454.515,204.774 455.094,203.631 456.269,202.694 L 454.752,202.662 L 454.788,200.747 L 465.284,200.751 C 467.122,200.802 468.437,201.03 469.215,201.36 C 470.022,201.844 470.613,202.448 471.08,203.234 C 471.484,204.112 471.75,205.095 471.814,206.276 C 471.768,207.715 471.433,208.892 470.811,209.804 C 470.111,210.732 469.157,211.151 467.871,211.076 L 467.871,211.076"/>
    <path style="fill: none; fill-opacity:0; stroke-width: 0.02; stroke-linecap: round; stroke: #000000" d="M 460.626 209.344 C 462.22,209.361 463.433,209.052 464.114,208.446 C 464.948,207.812 465.278,207.034 465.166,206.021 C 465.237,205.133 464.924,204.318 464.165,203.666 C 463.482,203 462.321,202.743 460.727,202.726 C 459.302,202.757 458.165,203.051 457.331,203.686 C 456.588,204.383 456.181,205.175 456.187,206.048 C 456.208,206.999 456.598,207.8 457.342,208.374 C 458.116,209.103 459.201,209.375 460.626,209.344 L 460.626,209.344"/>
  </g>
  <g>
    <line style="fill: none; fill-opacity:0; stroke-width: 2; stroke: #000000" x1="362.8" y1="195.6" x2="362.129" y2="309.9"/>
    <polygon style="fill: #000000" points="357.129,309.871 362.07,319.9 367.129,309.93 "/>
    <polygon style="fill: none; fill-opacity:0; stroke-width: 2; stroke: #000000" points="357.129,309.871 362.07,319.9 367.129,309.93 "/>
  </g>
  <g>
    <line style="fill: none; fill-opacity:0; stroke-width: 2; stroke: #000000" x1="290.032" y1="205.52" x2="285.011" y2="205.206"/>
    <polygon style="fill: #000000" points="285.322,200.216 275.03,204.582 284.699,210.196 "/>
    <polygon style="fill: none; fill-opacity:0; stroke-width: 2; stroke: #000000" points="285.322,200.216 275.03,204.582 284.699,210.196 "/>
  </g>
  <g>
    <line style="fill: none; fill-opacity:0; stroke-width: 2; stroke: #000000" x1="290.9" y1="290.3" x2="282.403" y2="291.336"/>
    <polygon style="fill: #000000" points="281.798,286.373 272.477,292.547 283.008,296.3 "/>
    <polygon style="fill: none; fill-opacity:0; stroke-width: 2; stroke: #000000" points="281.798,286.373 272.477,292.547 283.008,296.3 "/>
  </g>
  <g>
    <line style="fill: none; fill-opacity:0; stroke-width: 2; stroke: #000000" x1="289.9" y1="375.3" x2="282.454" y2="375.853"/>
    <polygon style="fill: #000000" points="282.083,370.867 272.481,376.594 282.824,380.839 "/>
    <polygon style="fill: none; fill-opacity:0; stroke-width: 2; stroke: #000000" points="282.083,370.867 272.481,376.594 282.824,380.839 "/>
  </g>
  <polyline style="fill: none; fill-opacity:0; stroke-width: 2; stroke: #000000" points="296.8,145.6 289.9,145.6 289.9,375.3 "/>
  <g>
    <polyline style="fill: none; fill-opacity:0; stroke-width: 2; stroke: #000000" points="296.8,145.6 289.9,145.6 289.9,124.668 283.484,124.668 "/>
    <polygon style="fill: #000000" points="283.484,119.668 273.484,124.668 283.484,129.668 "/>
    <polygon style="fill: none; fill-opacity:0; stroke-width: 2; stroke: #000000" points="283.484,119.668 273.484,124.668 283.484,129.668 "/>
  </g>
</svg>
