<?xml version="1.0" encoding="UTF-8" standalone="no"?>
<!DOCTYPE svg PUBLIC "-//W3C//DTD SVG 1.0//EN" "http://www.w3.org/TR/2001/PR-SVG-20010719/DTD/svg10.dtd">
<svg width="45cm" height="30cm" viewBox="269 96 893 588" xmlns="http://www.w3.org/2000/svg" xmlns:xlink="http://www.w3.org/1999/xlink">
  <g>
    <polygon style="fill: #daf0f7" points="699.953,354.6 794.926,354.6 794.926,432.735 689.4,432.735 689.4,362.414 "/>
    <polygon style="fill: none; fill-opacity:0; stroke-width: 2; stroke: #a020f0" points="699.953,354.6 794.926,354.6 794.926,432.735 689.4,432.735 689.4,362.414 "/>
    <text font-size="12.8" style="fill: #000000;text-anchor:middle;font-family:sans-serif;font-style:normal;font-weight:normal" x="744.801" y="383.621">
      <tspan x="744.801" y="383.621">fix_OBSin.TXT</tspan>
      <tspan x="744.801" y="399.621">...</tspan>
      <tspan x="744.801" y="415.621">plume heights</tspan>
    </text>
  </g>
  <g>
    <rect style="fill: #ffeb67" x="497" y="436" width="132" height="100"/>
    <rect style="fill: none; fill-opacity:0; stroke-width: 2; stroke: #000000" x="497" y="436" width="132" height="100"/>
    <text font-size="20.32" style="fill: #000000;text-anchor:middle;font-family:sans-serif;font-style:normal;font-weight:normal" x="563" y="492.15">
      <tspan x="563" y="492.15">FIX</tspan>
    </text>
  </g>
  <g>
    <rect style="fill: #5095ff" x="854.4" y="435.6" width="132" height="100"/>
    <rect style="fill: none; fill-opacity:0; stroke-width: 2; stroke: #000000" x="854.4" y="435.6" width="132" height="100"/>
    <text font-size="20.32" style="fill: #000000;text-anchor:middle;font-family:sans-serif;font-style:normal;font-weight:normal" x="920.4" y="491.75">
      <tspan x="920.4" y="491.75">FOXI</tspan>
    </text>
  </g>
  <text font-size="12.8" style="fill: #000000;text-anchor:start;font-family:sans-serif;font-style:normal;font-weight:normal" x="920.4" y="485.6">
    <tspan x="920.4" y="485.6"></tspan>
  </text>
  <text font-size="12.8" style="fill: #000000;text-anchor:start;font-family:sans-serif;font-style:normal;font-weight:normal" x="742.164" y="393.668">
    <tspan x="742.164" y="393.668"></tspan>
  </text>
  <g>
    <polyline style="fill: none; fill-opacity:0; stroke-width: 4; stroke-dasharray: 4; stroke: #000000" points="563,436 564,394 677.4,393.7 "/>
    <polygon style="fill: #000000" points="677.413,398.7 687.4,393.673 677.387,388.7 "/>
    <polygon style="fill: none; fill-opacity:0; stroke-width: 4; stroke: #000000" points="677.413,398.7 687.4,393.673 677.387,388.7 "/>
  </g>
  <g>
    <polygon style="fill: #daf0f7" points="699.953,447.6 794.926,447.6 794.926,525.735 689.4,525.735 689.4,455.414 "/>
    <polygon style="fill: none; fill-opacity:0; stroke-width: 2; stroke: #a020f0" points="699.953,447.6 794.926,447.6 794.926,525.735 689.4,525.735 689.4,455.414 "/>
    <text font-size="12.8" style="fill: #000000;text-anchor:middle;font-family:sans-serif;font-style:normal;font-weight:normal" x="744.801" y="476.621">
      <tspan x="744.801" y="476.621">fix_config.txt</tspan>
      <tspan x="744.801" y="492.621">...</tspan>
      <tspan x="744.801" y="508.621">config settings</tspan>
    </text>
  </g>
  <g>
    <polygon style="fill: #daf0f7" points="699.615,269.6 795.346,269.6 795.346,347.735 688.978,347.735 688.978,277.414 "/>
    <polygon style="fill: none; fill-opacity:0; stroke-width: 2; stroke: #a020f0" points="699.615,269.6 795.346,269.6 795.346,347.735 688.978,347.735 688.978,277.414 "/>
    <text font-size="12.8" style="fill: #000000;text-anchor:middle;font-family:sans-serif;font-style:normal;font-weight:normal" x="744.821" y="298.621">
      <tspan x="744.821" y="298.621">fix_MERin.TXT</tspan>
      <tspan x="744.821" y="314.621">...</tspan>
      <tspan x="744.821" y="330.621">MER estimates</tspan>
    </text>
  </g>
  <g>
    <line style="fill: none; fill-opacity:0; stroke-width: 4; stroke: #000000" x1="629" y1="486" x2="677.401" y2="486.535"/>
    <polygon style="fill: #000000" points="677.345,491.535 687.4,486.646 677.456,481.536 "/>
    <polygon style="fill: none; fill-opacity:0; stroke-width: 4; stroke: #000000" points="677.345,491.535 687.4,486.646 677.456,481.536 "/>
  </g>
  <g>
    <polyline style="fill: none; fill-opacity:0; stroke-width: 4; stroke-dasharray: 4; stroke: #000000" points="563,436 564,309 677.4,308.7 "/>
    <polygon style="fill: #000000" points="677.413,313.7 687.4,308.673 677.387,303.7 "/>
    <polygon style="fill: none; fill-opacity:0; stroke-width: 4; stroke: #000000" points="677.413,313.7 687.4,308.673 677.387,303.7 "/>
  </g>
  <g>
    <line style="fill: none; fill-opacity:0; stroke-width: 4; stroke: #000000" x1="794.926" y1="486.668" x2="842.402" y2="485.815"/>
    <polygon style="fill: #000000" points="842.492,490.815 852.4,485.636 842.312,480.816 "/>
    <polygon style="fill: none; fill-opacity:0; stroke-width: 4; stroke: #000000" points="842.492,490.815 852.4,485.636 842.312,480.816 "/>
  </g>
  <polyline style="fill: none; fill-opacity:0; stroke-width: 4; stroke-dasharray: 4; stroke: #000000" points="887.4,435.6 888,310 794.926,308.668 "/>
  <g>
    <polyline style="fill: none; fill-opacity:0; stroke-width: 4; stroke-dasharray: 4; stroke: #000000" points="887.287,423.601 887,393 794.926,393.668 "/>
    <polygon style="fill: #000000" points="882.288,423.647 887.381,433.6 892.287,423.554 "/>
    <polygon style="fill: none; fill-opacity:0; stroke-width: 4; stroke: #000000" points="882.288,423.647 887.381,433.6 892.287,423.554 "/>
  </g>
  <g>
    <rect style="fill: #ffffff" x="842" y="97" width="155" height="56"/>
    <rect style="fill: none; fill-opacity:0; stroke-width: 2; stroke: #000000" x="842" y="97" width="155" height="56"/>
    <text font-size="12.8" style="fill: #000000;text-anchor:middle;font-family:sans-serif;font-style:normal;font-weight:normal" x="919.5" y="120.9">
      <tspan x="919.5" y="120.9">auto-stream data</tspan>
      <tspan x="919.5" y="136.9">sources</tspan>
    </text>
  </g>
  <g>
    <line style="fill: none; fill-opacity:0; stroke-width: 4; stroke: #000000" x1="919.5" y1="153" x2="919.404" y2="423.6"/>
    <polygon style="fill: #000000" points="914.404,423.598 919.401,433.6 924.404,423.602 "/>
    <polygon style="fill: none; fill-opacity:0; stroke-width: 4; stroke: #000000" points="914.404,423.598 919.401,433.6 924.404,423.602 "/>
  </g>
  <g>
    <ellipse style="fill: #ffffff" cx="377.933" cy="484.966" rx="57.0673" ry="54.0336"/>
    <ellipse style="fill: none; fill-opacity:0; stroke-width: 2; stroke: #ff0000" cx="377.933" cy="484.966" rx="57.0673" ry="54.0336"/>
    <text font-size="15.8044" style="fill: #ff0000;text-anchor:middle;font-family:sans-serif;font-style:normal;font-weight:normal" x="377.933" y="489.738">
      <tspan x="377.933" y="489.738">operator</tspan>
    </text>
  </g>
  <g>
    <line style="fill: none; fill-opacity:0; stroke-width: 4; stroke: #ff0000" x1="435" y1="484.966" x2="485.002" y2="485.8"/>
    <polygon style="fill: #ff0000" points="484.918,490.799 495,485.967 485.085,480.801 "/>
    <polygon style="fill: none; fill-opacity:0; stroke-width: 4; stroke: #ff0000" points="484.918,490.799 495,485.967 485.085,480.801 "/>
  </g>
  <g>
    <line style="fill: none; fill-opacity:0; stroke-width: 4; stroke: #ff0000" x1="377.934" y1="430.932" x2="377.995" y2="294"/>
    <polygon style="fill: #ff0000" points="382.995,294.002 377.999,284 372.995,293.998 "/>
    <polygon style="fill: none; fill-opacity:0; stroke-width: 4; stroke: #ff0000" points="382.995,294.002 377.999,284 372.995,293.998 "/>
  </g>
  <g>
    <line style="fill: none; fill-opacity:0; stroke-width: 4; stroke: #000000" x1="986.4" y1="485.6" x2="1037.4" y2="484.79"/>
    <polygon style="fill: #000000" points="1037.48,489.79 1047.4,484.632 1037.32,479.791 "/>
    <polygon style="fill: none; fill-opacity:0; stroke-width: 4; stroke: #000000" points="1037.48,489.79 1047.4,484.632 1037.32,479.791 "/>
  </g>
  <g>
    <polyline style="fill: none; fill-opacity:0; stroke-width: 4; stroke: #000000" points="529.939,418 529,232 452,231 "/>
    <polygon style="fill: #000000" points="524.939,418.025 529.99,428 534.939,417.975 "/>
    <polygon style="fill: none; fill-opacity:0; stroke-width: 4; stroke: #000000" points="524.939,418.025 529.99,428 534.939,417.975 "/>
  </g>
  <polyline style="fill: none; fill-opacity:0; stroke-width: 4; stroke-dasharray: 4; stroke: #000000" points="887.402,310.26 888.002,184.661 447,185 "/>
  <g>
    <polygon style="fill: #ffffff" points="708.8,575 779,575 779,618 701,618 701,579.3 "/>
    <polygon style="fill: none; fill-opacity:0; stroke-width: 2; stroke: #097e09" points="708.8,575 779,575 779,618 701,618 701,579.3 "/>
    <text font-size="12.8" style="fill: #000000;text-anchor:middle;font-family:sans-serif;font-style:normal;font-weight:normal" x="741.95" y="601.575">
      <tspan x="741.95" y="601.575">maps</tspan>
    </text>
  </g>
  <g>
    <polygon style="fill: #ffffff" points="1061.7,468.3 1131.9,468.3 1131.9,515 1053.9,515 1053.9,472.97 "/>
    <polygon style="fill: none; fill-opacity:0; stroke-width: 2; stroke: #097e09" points="1061.7,468.3 1131.9,468.3 1131.9,515 1053.9,515 1053.9,472.97 "/>
    <text font-size="12.8" style="fill: #000000;text-anchor:middle;font-family:sans-serif;font-style:normal;font-weight:normal" x="1094.85" y="496.817">
      <tspan x="1094.85" y="496.817"></tspan>
    </text>
  </g>
  <g>
    <polygon style="fill: #ffffff" points="1076.7,457.3 1146.9,457.3 1146.9,504 1068.9,504 1068.9,461.97 "/>
    <polygon style="fill: none; fill-opacity:0; stroke-width: 2; stroke: #097e09" points="1076.7,457.3 1146.9,457.3 1146.9,504 1068.9,504 1068.9,461.97 "/>
    <text font-size="12.8" style="fill: #000000;text-anchor:middle;font-family:sans-serif;font-style:normal;font-weight:normal" x="1109.85" y="485.817">
      <tspan x="1109.85" y="485.817"></tspan>
    </text>
  </g>
  <g>
    <polygon style="fill: #ffffff" points="1086.89,445.3 1161.16,445.3 1161.16,492 1078.64,492 1078.64,449.97 "/>
    <polygon style="fill: none; fill-opacity:0; stroke-width: 2; stroke: #097e09" points="1086.89,445.3 1161.16,445.3 1161.16,492 1078.64,492 1078.64,449.97 "/>
    <text font-size="12.8" style="fill: #000000;text-anchor:middle;font-family:sans-serif;font-style:normal;font-weight:normal" x="1121.96" y="473.817">
      <tspan x="1121.96" y="473.817">output files</tspan>
    </text>
  </g>
  <g>
    <polyline style="fill: none; fill-opacity:0; stroke-width: 4; stroke-dasharray: 4; stroke: #000000" points="685,600.09 563,601 563,536 "/>
    <polygon style="fill: #000000" points="685.038,605.089 695,600.015 684.963,595.09 "/>
    <polygon style="fill: none; fill-opacity:0; stroke-width: 4; stroke: #000000" points="685.038,605.089 695,600.015 684.963,595.09 "/>
  </g>
  <g>
    <line style="fill: none; fill-opacity:0; stroke-width: 4; stroke: #000000" x1="779" y1="596.5" x2="834.003" y2="597.731"/>
    <polygon style="fill: #000000" points="833.891,602.73 844.001,597.955 834.115,592.733 "/>
    <polygon style="fill: none; fill-opacity:0; stroke-width: 4; stroke: #000000" points="833.891,602.73 844.001,597.955 834.115,592.733 "/>
  </g>
  <g>
    <rect style="fill: #ffffff" x="945" y="182" width="177" height="112"/>
    <rect style="fill: none; fill-opacity:0; stroke-width: 2; stroke: #0000ff" x="945" y="182" width="177" height="112"/>
    <text font-size="12.8" style="fill: #000000;text-anchor:middle;font-family:sans-serif;font-style:normal;font-weight:normal" x="1033.5" y="241.9">
      <tspan x="1033.5" y="241.9"></tspan>
    </text>
  </g>
  <g>
    <polygon style="fill: #98ffa8" points="969.768,199.3 1076.58,199.3 1076.58,277.435 957.9,277.435 957.9,207.114 "/>
    <polygon style="fill: none; fill-opacity:0; stroke-width: 2; stroke: #000000" points="969.768,199.3 1076.58,199.3 1076.58,277.435 957.9,277.435 957.9,207.114 "/>
    <text font-size="12.8" style="fill: #000000;text-anchor:middle;font-family:sans-serif;font-style:normal;font-weight:normal" x="1020.21" y="228.321">
      <tspan x="1020.21" y="228.321">refir_.log</tspan>
      <tspan x="1020.21" y="244.321">...</tspan>
      <tspan x="1020.21" y="260.321">log file</tspan>
    </text>
  </g>
  <g>
    <path style="fill: #000000" d="M 1107.88 275.976 L 1097.31,275.987 L 1097.34,277.81 L 1095.74,277.793 L 1095.73,276.047 L 1094.46,276.048 C 1093.74,276.025 1093.1,275.988 1092.67,275.83 C 1092.16,275.687 1091.78,275.361 1091.44,274.791 C 1091.12,274.373 1090.9,273.62 1090.88,272.67 C 1090.93,272.104 1091.04,271.446 1091.07,270.726 L 1092.87,271.021 C 1092.88,271.496 1092.8,271.909 1092.71,272.245 C 1092.76,272.951 1092.92,273.397 1093.12,273.598 C 1093.42,273.938 1093.93,274.082 1094.62,273.951 L 1095.74,273.978 L 1095.76,271.588 L 1097.36,271.605 L 1097.33,273.995 L 1107.9,273.985 L 1107.88,275.976z"/>
    <path style="fill: #000000" d="M 1101.81 270.764 C 1099.59,270.786 1097.88,270.155 1096.76,268.856 C 1095.94,267.897 1095.46,266.636 1095.4,265.057 C 1095.42,263.464 1096.05,262.153 1097.1,260.999 C 1098.26,259.985 1099.75,259.464 1101.58,259.438 C 1103.25,259.44 1104.47,259.606 1105.28,260.09 C 1106.16,260.559 1106.78,261.316 1107.34,262.165 C 1107.83,263.105 1108.09,264.012 1108.12,265.039 C 1108.06,266.8 1107.6,268.159 1106.51,269.159 C 1105.45,270.235 1103.88,270.77 1101.81,270.764 L 1101.81,270.764z"/>
    <path style="fill: #ffffff" d="M 1101.8 268.618 C 1103.39,268.635 1104.61,268.326 1105.27,267.644 C 1106.11,267.009 1106.5,266.14 1106.45,265.036 C 1106.43,264.086 1106.04,263.285 1105.27,262.557 C 1104.58,261.891 1103.39,261.48 1101.72,261.477 C 1100.3,261.508 1099.1,261.894 1098.26,262.528 C 1097.52,263.225 1097.21,264.08 1097.15,265.045 C 1097.2,266.149 1097.53,267.041 1098.29,267.692 C 1099.06,268.421 1100.22,268.678 1101.8,268.618z"/>
    <path style="fill: #000000" d="M 1107.82 258.416 L 1101.57,253.952 L 1095.75,258.074 L 1095.75,255.53 L 1098.57,253.645 C 1099.14,253.298 1099.65,253.043 1099.93,252.832 C 1099.55,252.506 1099.09,252.195 1098.64,251.883 L 1095.7,249.814 L 1095.71,247.347 L 1101.44,251.591 L 1107.82,247.047 L 1107.82,249.591 L 1104.08,252.048 L 1103.09,252.712 L 1107.83,255.949 L 1107.82,258.416z"/>
    <path style="fill: #000000" d="M 1093.5 245.301 L 1091.12,245.353 L 1091.13,243.284 L 1093.5,243.233 L 1093.5,245.301z"/>
    <path style="fill: #000000" d="M 1107.89 245.286 L 1095.73,245.356 L 1095.74,243.287 L 1107.91,243.294 L 1107.89,245.286z"/>
    <path style="fill: #000000" d="M 1112.52 242.025 L 1111.02,242.071 L 1110.99,228.479 L 1112.49,228.434 L 1112.52,242.025z"/>
    <path style="fill: #000000" d="M 1107.88 227.159 L 1091.1,227.15 L 1091.12,225.158 L 1107.81,225.105 L 1107.88,227.159z"/>
    <path style="fill: #000000" d="M 1101.87 222.728 C 1099.65,222.751 1097.94,222.12 1096.82,220.821 C 1096.01,219.862 1095.53,218.601 1095.47,217.022 C 1095.49,215.428 1096.11,214.117 1097.17,212.964 C 1098.33,211.95 1099.82,211.429 1101.64,211.403 C 1103.31,211.405 1104.54,211.571 1105.34,212.055 C 1106.23,212.524 1106.85,213.281 1107.4,214.13 C 1107.9,215.07 1108.15,215.977 1108.19,217.004 C 1108.12,218.765 1107.66,220.124 1106.58,221.124 C 1105.51,222.2 1103.94,222.735 1101.87,222.728 L 1101.87,222.728z"/>
    <path style="fill: #ffffff" d="M 1101.87 220.583 C 1103.46,220.6 1104.67,220.291 1105.34,219.609 C 1106.17,218.974 1106.57,218.105 1106.52,217.001 C 1106.5,216.051 1106.11,215.25 1105.33,214.522 C 1104.65,213.856 1103.46,213.445 1101.79,213.442 C 1100.36,213.473 1099.16,213.859 1098.33,214.493 C 1097.59,215.19 1097.27,216.045 1097.22,217.01 C 1097.26,218.113 1097.59,219.006 1098.35,219.657 C 1099.13,220.386 1100.29,220.643 1101.87,220.583z"/>
    <path style="fill: #000000" d="M 1108.88 209.319 L 1109.21,207.269 C 1109.84,207.23 1110.27,206.99 1110.52,206.624 C 1110.91,206.154 1111.1,205.481 1111.15,204.517 C 1111.07,203.658 1110.85,202.905 1110.5,202.334 C 1110.09,201.855 1109.56,201.558 1108.95,201.276 C 1108.46,201.209 1107.57,201.138 1106.3,201.14 C 1107.27,202.07 1107.8,203.163 1107.89,204.497 C 1107.81,206.182 1107.26,207.479 1106.07,208.339 C 1104.9,209.277 1103.47,209.706 1101.8,209.704 C 1100.69,209.753 1099.62,209.558 1098.59,209.118 C 1097.63,208.663 1096.88,208.088 1096.32,207.24 C 1095.87,206.53 1095.61,205.547 1095.48,204.458 C 1095.53,203.018 1096.1,201.875 1097.28,200.937 L 1095.76,200.906 L 1095.8,198.991 L 1106.29,198.995 C 1108.13,199.045 1109.45,199.274 1110.22,199.604 C 1111.03,200.087 1111.62,200.691 1112.09,201.477 C 1112.49,202.355 1112.76,203.339 1112.82,204.519 C 1112.78,205.959 1112.44,207.135 1111.82,208.048 C 1111.12,208.975 1110.17,209.394 1108.88,209.319 L 1108.88,209.319z"/>
    <path style="fill: #ffffff" d="M 1101.64 207.587 C 1103.23,207.604 1104.44,207.295 1105.12,206.69 C 1105.96,206.055 1106.29,205.277 1106.18,204.265 C 1106.25,203.377 1105.93,202.561 1105.17,201.91 C 1104.49,201.244 1103.33,200.986 1101.74,200.969 C 1100.31,201 1099.17,201.294 1098.34,201.929 C 1097.6,202.626 1097.19,203.418 1097.2,204.292 C 1097.22,205.242 1097.61,206.043 1098.35,206.618 C 1099.13,207.346 1100.21,207.618 1101.64,207.587z"/>
    <path style="fill: none; fill-opacity:0; stroke-width: 0.02; stroke-linecap: round; stroke: #000000" d="M 1107.88 275.976 L 1097.31,275.987 L 1097.34,277.81 L 1095.74,277.793 L 1095.73,276.047 L 1094.46,276.048 C 1093.74,276.025 1093.1,275.988 1092.67,275.83 C 1092.16,275.687 1091.78,275.361 1091.44,274.791 C 1091.12,274.373 1090.9,273.62 1090.88,272.67 C 1090.93,272.104 1091.04,271.446 1091.07,270.726 L 1092.87,271.021 C 1092.88,271.496 1092.8,271.909 1092.71,272.245 C 1092.76,272.951 1092.92,273.397 1093.12,273.598 C 1093.42,273.938 1093.93,274.082 1094.62,273.951 L 1095.74,273.978 L 1095.76,271.588 L 1097.36,271.605 L 1097.33,273.995 L 1107.9,273.985 L 1107.88,275.976"/>
    <path style="fill: none; fill-opacity:0; stroke-width: 0.02; stroke-linecap: round; stroke: #000000" d="M 1101.81 270.764 C 1099.59,270.786 1097.88,270.155 1096.76,268.856 C 1095.94,267.897 1095.46,266.636 1095.4,265.057 C 1095.42,263.464 1096.05,262.153 1097.1,260.999 C 1098.26,259.985 1099.75,259.464 1101.58,259.438 C 1103.25,259.44 1104.47,259.606 1105.28,260.09 C 1106.16,260.559 1106.78,261.316 1107.34,262.165 C 1107.83,263.105 1108.09,264.012 1108.12,265.039 C 1108.06,266.8 1107.6,268.159 1106.51,269.159 C 1105.45,270.235 1103.88,270.77 1101.81,270.764 L 1101.81,270.764"/>
    <path style="fill: none; fill-opacity:0; stroke-width: 0.02; stroke-linecap: round; stroke: #000000" d="M 1101.8 268.618 C 1103.39,268.635 1104.61,268.326 1105.27,267.644 C 1106.11,267.009 1106.5,266.14 1106.45,265.036 C 1106.43,264.086 1106.04,263.285 1105.27,262.557 C 1104.58,261.891 1103.39,261.48 1101.72,261.477 C 1100.3,261.508 1099.1,261.894 1098.26,262.528 C 1097.52,263.225 1097.21,264.08 1097.15,265.045 C 1097.2,266.149 1097.53,267.041 1098.29,267.692 C 1099.06,268.421 1100.22,268.678 1101.8,268.618 L 1101.8,268.618"/>
    <path style="fill: none; fill-opacity:0; stroke-width: 0.02; stroke-linecap: round; stroke: #000000" d="M 1107.82 258.416 L 1101.57,253.952 L 1095.75,258.074 L 1095.75,255.53 L 1098.57,253.645 C 1099.14,253.298 1099.65,253.043 1099.93,252.832 C 1099.55,252.506 1099.09,252.195 1098.64,251.883 L 1095.7,249.814 L 1095.71,247.347 L 1101.44,251.591 L 1107.82,247.047 L 1107.82,249.591 L 1104.08,252.048 L 1103.09,252.712 L 1107.83,255.949 L 1107.82,258.416"/>
    <path style="fill: none; fill-opacity:0; stroke-width: 0.02; stroke-linecap: round; stroke: #000000" d="M 1093.5 245.301 L 1091.12,245.353 L 1091.13,243.284 L 1093.5,243.233 L 1093.5,245.301"/>
    <path style="fill: none; fill-opacity:0; stroke-width: 0.02; stroke-linecap: round; stroke: #000000" d="M 1107.89 245.286 L 1095.73,245.356 L 1095.74,243.287 L 1107.91,243.294 L 1107.89,245.286"/>
    <path style="fill: none; fill-opacity:0; stroke-width: 0.02; stroke-linecap: round; stroke: #000000" d="M 1112.52 242.025 L 1111.02,242.071 L 1110.99,228.479 L 1112.49,228.434 L 1112.52,242.025"/>
    <path style="fill: none; fill-opacity:0; stroke-width: 0.02; stroke-linecap: round; stroke: #000000" d="M 1107.88 227.159 L 1091.1,227.15 L 1091.12,225.158 L 1107.81,225.105 L 1107.88,227.159"/>
    <path style="fill: none; fill-opacity:0; stroke-width: 0.02; stroke-linecap: round; stroke: #000000" d="M 1101.87 222.728 C 1099.65,222.751 1097.94,222.12 1096.82,220.821 C 1096.01,219.862 1095.53,218.601 1095.47,217.022 C 1095.49,215.428 1096.11,214.117 1097.17,212.964 C 1098.33,211.95 1099.82,211.429 1101.64,211.403 C 1103.31,211.405 1104.54,211.571 1105.34,212.055 C 1106.23,212.524 1106.85,213.281 1107.4,214.13 C 1107.9,215.07 1108.15,215.977 1108.19,217.004 C 1108.12,218.765 1107.66,220.124 1106.58,221.124 C 1105.51,222.2 1103.94,222.735 1101.87,222.728 L 1101.87,222.728"/>
    <path style="fill: none; fill-opacity:0; stroke-width: 0.02; stroke-linecap: round; stroke: #000000" d="M 1101.87 220.583 C 1103.46,220.6 1104.67,220.291 1105.34,219.609 C 1106.17,218.974 1106.57,218.105 1106.52,217.001 C 1106.5,216.051 1106.11,215.25 1105.33,214.522 C 1104.65,213.856 1103.46,213.445 1101.79,213.442 C 1100.36,213.473 1099.16,213.859 1098.33,214.493 C 1097.59,215.19 1097.27,216.045 1097.22,217.01 C 1097.26,218.113 1097.59,219.006 1098.35,219.657 C 1099.13,220.386 1100.29,220.643 1101.87,220.583 L 1101.87,220.583"/>
    <path style="fill: none; fill-opacity:0; stroke-width: 0.02; stroke-linecap: round; stroke: #000000" d="M 1108.88 209.319 L 1109.21,207.269 C 1109.84,207.23 1110.27,206.99 1110.52,206.624 C 1110.91,206.154 1111.1,205.481 1111.15,204.517 C 1111.07,203.658 1110.85,202.905 1110.5,202.334 C 1110.09,201.855 1109.56,201.558 1108.95,201.276 C 1108.46,201.209 1107.57,201.138 1106.3,201.14 C 1107.27,202.07 1107.8,203.163 1107.89,204.497 C 1107.81,206.182 1107.26,207.479 1106.07,208.339 C 1104.9,209.277 1103.47,209.706 1101.8,209.704 C 1100.69,209.753 1099.62,209.558 1098.59,209.118 C 1097.63,208.663 1096.88,208.088 1096.32,207.24 C 1095.87,206.53 1095.61,205.547 1095.48,204.458 C 1095.53,203.018 1096.1,201.875 1097.28,200.937 L 1095.76,200.906 L 1095.8,198.991 L 1106.29,198.995 C 1108.13,199.045 1109.45,199.274 1110.22,199.604 C 1111.03,200.087 1111.62,200.691 1112.09,201.477 C 1112.49,202.355 1112.76,203.339 1112.82,204.519 C 1112.78,205.959 1112.44,207.135 1111.82,208.048 C 1111.12,208.975 1110.17,209.394 1108.88,209.319 L 1108.88,209.319"/>
    <path style="fill: none; fill-opacity:0; stroke-width: 0.02; stroke-linecap: round; stroke: #000000" d="M 1101.64 207.587 C 1103.23,207.604 1104.44,207.295 1105.12,206.69 C 1105.96,206.055 1106.29,205.277 1106.18,204.265 C 1106.25,203.377 1105.93,202.561 1105.17,201.91 C 1104.49,201.244 1103.33,200.986 1101.74,200.969 C 1100.31,201 1099.17,201.294 1098.34,201.929 C 1097.6,202.626 1097.19,203.418 1097.2,204.292 C 1097.22,205.242 1097.61,206.043 1098.35,206.618 C 1099.13,207.346 1100.21,207.618 1101.64,207.587 L 1101.64,207.587"/>
  </g>
  <g>
    <line style="fill: none; fill-opacity:0; stroke-width: 4; stroke: #000000" x1="974" y1="433" x2="974" y2="309"/>
    <polygon style="fill: #000000" points="979,309 974,299 969,309 "/>
    <polygon style="fill: none; fill-opacity:0; stroke-width: 4; stroke: #000000" points="979,309 974,299 969,309 "/>
  </g>
  <g>
    <rect style="fill: #f7b2b2" x="841.748" y="548.3" width="170.3" height="100"/>
    <rect style="fill: none; fill-opacity:0; stroke-width: 2; stroke: #000000" x="841.748" y="548.3" width="170.3" height="100"/>
    <text font-size="20.32" style="fill: #000000;text-anchor:middle;font-family:sans-serif;font-style:normal;font-weight:normal" x="926.898" y="604.45">
      <tspan x="926.898" y="604.45">FoxSet</tspan>
    </text>
  </g>
  <g>
    <polyline style="fill: none; fill-opacity:0; stroke-width: 4; stroke: #000000" points="1022,598 1103,598 1104,520 "/>
    <polygon style="fill: #000000" points="1022,593 1012,598 1022,603 "/>
    <polygon style="fill: none; fill-opacity:0; stroke-width: 4; stroke: #000000" points="1022,593 1012,598 1022,603 "/>
  </g>
  <g>
    <rect style="fill: #ffffff" x="304" y="569.984" width="151" height="61.0333"/>
    <rect style="fill: none; fill-opacity:0; stroke-width: 2; stroke: #097e09" x="304" y="569.984" width="151" height="61.0333"/>
    <line style="fill: none; fill-opacity:0; stroke-width: 2; stroke: #097e09" x1="319.1" y1="569.984" x2="319.1" y2="631.017"/>
    <line style="fill: none; fill-opacity:0; stroke-width: 2; stroke: #097e09" x1="439.9" y1="569.984" x2="439.9" y2="631.017"/>
    <text font-size="14.6756" style="fill: #000000;text-anchor:middle;font-family:sans-serif;font-style:normal;font-weight:normal" x="379.5" y="586.742">
      <tspan x="379.5" y="586.742">REFIR output</tspan>
      <tspan x="379.5" y="605.087">displayed </tspan>
      <tspan x="379.5" y="623.431">on screen</tspan>
    </text>
  </g>
  <g>
    <polyline style="fill: none; fill-opacity:0; stroke-width: 4; stroke: #000000" points="922,651 922,681 380,681 379.62,643.017 "/>
    <polygon style="fill: #000000" points="384.62,642.967 379.52,633.018 374.62,643.067 "/>
    <polygon style="fill: none; fill-opacity:0; stroke-width: 4; stroke: #000000" points="384.62,642.967 379.52,633.018 374.62,643.067 "/>
  </g>
  <g>
    <rect style="fill: #ffffff" x="270.9" y="139" width="177" height="141.3"/>
    <rect style="fill: none; fill-opacity:0; stroke-width: 2; stroke: #0000ff" x="270.9" y="139" width="177" height="141.3"/>
    <text font-size="12.8" style="fill: #000000;text-anchor:middle;font-family:sans-serif;font-style:normal;font-weight:normal" x="359.4" y="213.55">
      <tspan x="359.4" y="213.55"></tspan>
    </text>
  </g>
  <g>
    <path style="fill: #000000" d="M 434.923 265.119 L 422.757,265.112 L 422.807,263.274 L 424.631,263.247 C 423.838,262.841 423.276,262.39 422.959,261.973 C 422.718,261.542 422.554,261.096 422.467,260.635 C 422.582,259.977 422.849,259.291 423.179,258.513 L 425.071,259.268 C 424.851,259.787 424.708,260.291 424.642,260.781 C 424.652,261.256 424.801,261.625 425.027,261.98 C 425.407,262.306 425.772,262.555 426.122,262.727 C 426.963,262.966 427.774,263.051 428.571,263.059 L 434.853,263.065 L 434.923,265.119z"/>
    <path style="fill: #000000" d="M 430.926 249.018 L 431.24,246.892 C 432.507,247.289 433.358,248.002 434.069,248.822 C 434.733,249.81 435.104,250.932 435.106,252.204 C 435.07,254.119 434.611,255.478 433.528,256.478 C 432.445,257.477 430.876,258.012 428.885,257.991 C 426.908,258.047 425.381,257.54 424.213,256.409 C 423.151,255.417 422.568,254.017 422.494,252.361 C 422.511,250.768 423.061,249.471 424.129,248.395 C 425.289,247.38 426.781,246.86 428.758,246.804 C 428.926,246.852 429.171,246.885 429.325,246.856 L 429.275,255.85 C 430.701,255.819 431.746,255.463 432.412,254.78 C 433.079,254.098 433.471,253.229 433.436,252.202 C 433.459,251.482 433.266,250.882 432.92,250.311 C 432.588,249.818 431.949,249.382 430.926,249.018 L 430.926,249.018z"/>
    <path style="fill: #ffffff" d="M 427.591 255.771 L 427.663,248.999 C 426.65,249.111 425.911,249.41 425.341,249.756 C 424.689,250.515 424.282,251.308 424.149,252.287 C 424.247,253.223 424.56,254.038 425.166,254.719 C 425.848,255.385 426.64,255.791 427.591,255.771z"/>
    <path style="fill: #000000" d="M 434.873 243.82 L 424.301,243.83 L 424.327,245.654 L 422.734,245.637 L 422.722,243.89 L 421.45,243.892 C 420.73,243.869 420.087,243.832 419.659,243.674 C 419.155,243.531 418.776,243.205 418.429,242.634 C 418.112,242.217 417.89,241.464 417.87,240.514 C 417.922,239.947 418.036,239.29 418.059,238.57 L 419.864,238.865 C 419.874,239.34 419.793,239.753 419.698,240.089 C 419.751,240.794 419.915,241.24 420.112,241.442 C 420.415,241.782 420.919,241.925 421.61,241.795 L 422.728,241.822 L 422.754,239.432 L 424.347,239.449 L 424.322,241.839 L 434.894,241.828 L 434.873,243.82z"/>
    <path style="fill: #000000" d="M 420.534 237.784 L 418.159,237.835 L 418.165,235.767 L 420.541,235.716 L 420.534,237.784z"/>
    <path style="fill: #000000" d="M 434.922 237.768 L 422.771,237.838 L 422.777,235.77 L 434.943,235.777 L 434.922,237.768z"/>
    <path style="fill: #000000" d="M 434.915 232.681 L 422.749,232.675 L 422.799,230.836 L 424.623,230.81 C 423.83,230.403 423.268,229.953 422.951,229.536 C 422.71,229.104 422.546,228.658 422.459,228.197 C 422.574,227.54 422.841,226.853 423.171,226.075 L 425.063,226.831 C 424.843,227.349 424.7,227.853 424.634,228.343 C 424.644,228.818 424.793,229.187 425.019,229.542 C 425.399,229.868 425.764,230.117 426.114,230.289 C 426.955,230.528 427.766,230.613 428.563,230.622 L 434.845,230.627 L 434.915,232.681z"/>
    <path style="fill: #000000" d="M 439.59 226.709 L 438.088,226.754 L 438.064,213.163 L 439.566,213.118 L 439.59,226.709z"/>
    <path style="fill: #000000" d="M 430.516 203.936 L 430.767,201.9 C 432.174,202.191 433.164,202.799 433.952,203.604 C 434.692,204.577 435.14,205.685 435.219,206.943 C 435.154,208.704 434.681,209.986 433.583,210.909 C 432.591,211.971 431.023,212.506 428.94,212.423 C 427.682,212.501 426.521,212.244 425.483,211.804 C 424.523,211.349 423.764,210.698 423.282,209.834 C 422.801,208.971 422.55,208.065 422.501,206.961 C 422.576,205.675 422.925,204.575 423.562,203.739 C 424.199,202.903 425.124,202.331 426.352,202.099 L 426.653,204.109 C 425.9,204.331 425.329,204.677 424.85,205.086 C 424.476,205.633 424.271,206.229 424.233,206.872 C 424.283,207.976 424.596,208.791 425.341,209.366 C 426.114,210.094 427.291,210.429 428.869,210.369 C 430.54,210.371 431.753,210.062 432.419,209.38 C 433.191,208.836 433.507,207.982 433.472,206.955 C 433.48,206.158 433.273,205.482 432.773,204.94 C 432.273,204.399 431.495,204.069 430.516,203.936 L 430.516,203.936z"/>
    <path style="fill: #000000" d="M 428.832 200.914 C 426.61,200.937 424.901,200.306 423.781,199.007 C 422.963,198.048 422.486,196.787 422.427,195.208 C 422.443,193.614 423.07,192.303 424.124,191.15 C 425.284,190.136 426.776,189.615 428.6,189.589 C 430.27,189.591 431.494,189.757 432.301,190.241 C 433.185,190.71 433.805,191.467 434.363,192.316 C 434.858,193.256 435.109,194.163 435.144,195.19 C 435.08,196.951 434.621,198.31 433.538,199.31 C 432.469,200.386 430.9,200.921 428.832,200.914 L 428.832,200.914z"/>
    <path style="fill: #ffffff" d="M 428.824 198.769 C 430.417,198.786 431.631,198.477 432.297,197.795 C 433.131,197.16 433.524,196.291 433.474,195.187 C 433.454,194.237 433.064,193.436 432.29,192.708 C 431.608,192.042 430.417,191.631 428.747,191.628 C 427.321,191.659 426.122,192.045 425.288,192.679 C 424.545,193.376 424.23,194.231 424.173,195.196 C 424.223,196.299 424.551,197.192 425.31,197.843 C 426.083,198.572 427.245,198.829 428.824,198.769z"/>
    <path style="fill: #000000" d="M 434.907 187.204 L 422.741,187.197 L 422.792,185.359 L 424.462,185.362 C 423.184,184.49 422.539,183.181 422.45,181.448 C 422.564,180.791 422.679,180.133 422.87,179.461 C 423.152,178.851 423.54,178.38 423.88,178.077 C 424.389,177.822 424.911,177.644 425.434,177.466 C 425.909,177.455 426.538,177.416 427.397,177.333 L 434.874,177.351 L 434.867,179.42 L 427.467,179.387 C 426.747,179.364 426.133,179.48 425.687,179.644 C 425.318,179.793 424.977,180.096 424.651,180.476 C 424.508,180.98 424.35,181.407 424.284,181.897 C 424.305,182.847 424.618,183.663 425.118,184.204 C 425.723,184.885 426.731,185.171 428.233,185.126 L 434.914,185.136 L 434.907,187.204z"/>
    <path style="fill: #000000" d="M 434.883 173.613 L 424.311,173.623 L 424.337,175.447 L 422.744,175.43 L 422.732,173.683 L 421.46,173.685 C 420.74,173.662 420.097,173.624 419.669,173.467 C 419.165,173.323 418.786,172.998 418.439,172.427 C 418.122,172.01 417.9,171.257 417.88,170.307 C 417.932,169.74 418.046,169.082 418.069,168.363 L 419.874,168.658 C 419.884,169.133 419.803,169.545 419.708,169.882 C 419.761,170.587 419.925,171.033 420.122,171.234 C 420.425,171.575 420.929,171.718 421.62,171.587 L 422.738,171.615 L 422.764,169.225 L 424.357,169.241 L 424.332,171.631 L 434.904,171.621 L 434.883,173.613z"/>
    <path style="fill: #000000" d="M 420.559 167.654 L 418.183,167.705 L 418.19,165.636 L 420.565,165.585 L 420.559,167.654z"/>
    <path style="fill: #000000" d="M 434.947 167.638 L 422.795,167.708 L 422.802,165.639 L 434.968,165.646 L 434.947,167.638z"/>
    <path style="fill: #000000" d="M 435.871 162.852 L 436.199,160.802 C 436.828,160.763 437.259,160.522 437.508,160.157 C 437.896,159.686 438.087,159.014 438.143,158.049 C 438.061,157.19 437.839,156.437 437.492,155.867 C 437.084,155.387 436.551,155.09 435.941,154.808 C 435.451,154.742 434.563,154.671 433.291,154.673 C 434.262,155.602 434.787,156.696 434.88,158.03 C 434.801,159.715 434.251,161.011 433.062,161.872 C 431.887,162.809 430.458,163.239 428.788,163.236 C 427.684,163.286 426.613,163.09 425.576,162.65 C 424.616,162.196 423.871,161.621 423.313,160.772 C 422.861,160.063 422.596,159.079 422.469,157.99 C 422.515,156.55 423.094,155.407 424.269,154.47 L 422.752,154.438 L 422.788,152.523 L 433.284,152.527 C 435.122,152.578 436.437,152.806 437.215,153.136 C 438.022,153.62 438.613,154.224 439.08,155.01 C 439.484,155.888 439.75,156.871 439.814,158.052 C 439.768,159.491 439.433,160.668 438.811,161.58 C 438.111,162.508 437.157,162.927 435.871,162.852 L 435.871,162.852z"/>
    <path style="fill: #ffffff" d="M 428.626 161.12 C 430.22,161.137 431.433,160.828 432.114,160.222 C 432.948,159.588 433.278,158.81 433.166,157.797 C 433.237,156.909 432.924,156.094 432.165,155.442 C 431.482,154.776 430.321,154.519 428.727,154.502 C 427.302,154.533 426.165,154.827 425.331,155.462 C 424.588,156.159 424.181,156.951 424.187,157.824 C 424.208,158.775 424.598,159.576 425.342,160.15 C 426.116,160.879 427.201,161.151 428.626,161.12z"/>
    <path style="fill: none; fill-opacity:0; stroke-width: 0.02; stroke-linecap: round; stroke: #000000" d="M 434.923 265.119 L 422.757,265.112 L 422.807,263.274 L 424.631,263.247 C 423.838,262.841 423.276,262.39 422.959,261.973 C 422.718,261.542 422.554,261.096 422.467,260.635 C 422.582,259.977 422.849,259.291 423.179,258.513 L 425.071,259.268 C 424.851,259.787 424.708,260.291 424.642,260.781 C 424.652,261.256 424.801,261.625 425.027,261.98 C 425.407,262.306 425.772,262.555 426.122,262.727 C 426.963,262.966 427.774,263.051 428.571,263.059 L 434.853,263.065 L 434.923,265.119"/>
    <path style="fill: none; fill-opacity:0; stroke-width: 0.02; stroke-linecap: round; stroke: #000000" d="M 430.926 249.018 L 431.24,246.892 C 432.507,247.289 433.358,248.002 434.069,248.822 C 434.733,249.81 435.104,250.932 435.106,252.204 C 435.07,254.119 434.611,255.478 433.528,256.478 C 432.445,257.477 430.876,258.012 428.885,257.991 C 426.908,258.047 425.381,257.54 424.213,256.409 C 423.151,255.417 422.568,254.017 422.494,252.361 C 422.511,250.768 423.061,249.471 424.129,248.395 C 425.289,247.38 426.781,246.86 428.758,246.804 C 428.926,246.852 429.171,246.885 429.325,246.856 L 429.275,255.85 C 430.701,255.819 431.746,255.463 432.412,254.78 C 433.079,254.098 433.471,253.229 433.436,252.202 C 433.459,251.482 433.266,250.882 432.92,250.311 C 432.588,249.818 431.949,249.382 430.926,249.018 L 430.926,249.018"/>
    <path style="fill: none; fill-opacity:0; stroke-width: 0.02; stroke-linecap: round; stroke: #000000" d="M 427.591 255.771 L 427.663,248.999 C 426.65,249.111 425.911,249.41 425.341,249.756 C 424.689,250.515 424.282,251.308 424.149,252.287 C 424.247,253.223 424.56,254.038 425.166,254.719 C 425.848,255.385 426.64,255.791 427.591,255.771 L 427.591,255.771"/>
    <path style="fill: none; fill-opacity:0; stroke-width: 0.02; stroke-linecap: round; stroke: #000000" d="M 434.873 243.82 L 424.301,243.83 L 424.327,245.654 L 422.734,245.637 L 422.722,243.89 L 421.45,243.892 C 420.73,243.869 420.087,243.832 419.659,243.674 C 419.155,243.531 418.776,243.205 418.429,242.634 C 418.112,242.217 417.89,241.464 417.87,240.514 C 417.922,239.947 418.036,239.29 418.059,238.57 L 419.864,238.865 C 419.874,239.34 419.793,239.753 419.698,240.089 C 419.751,240.794 419.915,241.24 420.112,241.442 C 420.415,241.782 420.919,241.925 421.61,241.795 L 422.728,241.822 L 422.754,239.432 L 424.347,239.449 L 424.322,241.839 L 434.894,241.828 L 434.873,243.82"/>
    <path style="fill: none; fill-opacity:0; stroke-width: 0.02; stroke-linecap: round; stroke: #000000" d="M 420.534 237.784 L 418.159,237.835 L 418.165,235.767 L 420.541,235.716 L 420.534,237.784"/>
    <path style="fill: none; fill-opacity:0; stroke-width: 0.02; stroke-linecap: round; stroke: #000000" d="M 434.922 237.768 L 422.771,237.838 L 422.777,235.77 L 434.943,235.777 L 434.922,237.768"/>
    <path style="fill: none; fill-opacity:0; stroke-width: 0.02; stroke-linecap: round; stroke: #000000" d="M 434.915 232.681 L 422.749,232.675 L 422.799,230.836 L 424.623,230.81 C 423.83,230.403 423.268,229.953 422.951,229.536 C 422.71,229.104 422.546,228.658 422.459,228.197 C 422.574,227.54 422.841,226.853 423.171,226.075 L 425.063,226.831 C 424.843,227.349 424.7,227.853 424.634,228.343 C 424.644,228.818 424.793,229.187 425.019,229.542 C 425.399,229.868 425.764,230.117 426.114,230.289 C 426.955,230.528 427.766,230.613 428.563,230.622 L 434.845,230.627 L 434.915,232.681"/>
    <path style="fill: none; fill-opacity:0; stroke-width: 0.02; stroke-linecap: round; stroke: #000000" d="M 439.59 226.709 L 438.088,226.754 L 438.064,213.163 L 439.566,213.118 L 439.59,226.709"/>
    <path style="fill: none; fill-opacity:0; stroke-width: 0.02; stroke-linecap: round; stroke: #000000" d="M 430.516 203.936 L 430.767,201.9 C 432.174,202.191 433.164,202.799 433.952,203.604 C 434.692,204.577 435.14,205.685 435.219,206.943 C 435.154,208.704 434.681,209.986 433.583,210.909 C 432.591,211.971 431.023,212.506 428.94,212.423 C 427.682,212.501 426.521,212.244 425.483,211.804 C 424.523,211.349 423.764,210.698 423.282,209.834 C 422.801,208.971 422.55,208.065 422.501,206.961 C 422.576,205.675 422.925,204.575 423.562,203.739 C 424.199,202.903 425.124,202.331 426.352,202.099 L 426.653,204.109 C 425.9,204.331 425.329,204.677 424.85,205.086 C 424.476,205.633 424.271,206.229 424.233,206.872 C 424.283,207.976 424.596,208.791 425.341,209.366 C 426.114,210.094 427.291,210.429 428.869,210.369 C 430.54,210.371 431.753,210.062 432.419,209.38 C 433.191,208.836 433.507,207.982 433.472,206.955 C 433.48,206.158 433.273,205.482 432.773,204.94 C 432.273,204.399 431.495,204.069 430.516,203.936 L 430.516,203.936"/>
    <path style="fill: none; fill-opacity:0; stroke-width: 0.02; stroke-linecap: round; stroke: #000000" d="M 428.832 200.914 C 426.61,200.937 424.901,200.306 423.781,199.007 C 422.963,198.048 422.486,196.787 422.427,195.208 C 422.443,193.614 423.07,192.303 424.124,191.15 C 425.284,190.136 426.776,189.615 428.6,189.589 C 430.27,189.591 431.494,189.757 432.301,190.241 C 433.185,190.71 433.805,191.467 434.363,192.316 C 434.858,193.256 435.109,194.163 435.144,195.19 C 435.08,196.951 434.621,198.31 433.538,199.31 C 432.469,200.386 430.9,200.921 428.832,200.914 L 428.832,200.914"/>
    <path style="fill: none; fill-opacity:0; stroke-width: 0.02; stroke-linecap: round; stroke: #000000" d="M 428.824 198.769 C 430.417,198.786 431.631,198.477 432.297,197.795 C 433.131,197.16 433.524,196.291 433.474,195.187 C 433.454,194.237 433.064,193.436 432.29,192.708 C 431.608,192.042 430.417,191.631 428.747,191.628 C 427.321,191.659 426.122,192.045 425.288,192.679 C 424.545,193.376 424.23,194.231 424.173,195.196 C 424.223,196.299 424.551,197.192 425.31,197.843 C 426.083,198.572 427.245,198.829 428.824,198.769 L 428.824,198.769"/>
    <path style="fill: none; fill-opacity:0; stroke-width: 0.02; stroke-linecap: round; stroke: #000000" d="M 434.907 187.204 L 422.741,187.197 L 422.792,185.359 L 424.462,185.362 C 423.184,184.49 422.539,183.181 422.45,181.448 C 422.564,180.791 422.679,180.133 422.87,179.461 C 423.152,178.851 423.54,178.38 423.88,178.077 C 424.389,177.822 424.911,177.644 425.434,177.466 C 425.909,177.455 426.538,177.416 427.397,177.333 L 434.874,177.351 L 434.867,179.42 L 427.467,179.387 C 426.747,179.364 426.133,179.48 425.687,179.644 C 425.318,179.793 424.977,180.096 424.651,180.476 C 424.508,180.98 424.35,181.407 424.284,181.897 C 424.305,182.847 424.618,183.663 425.118,184.204 C 425.723,184.885 426.731,185.171 428.233,185.126 L 434.914,185.136 L 434.907,187.204"/>
    <path style="fill: none; fill-opacity:0; stroke-width: 0.02; stroke-linecap: round; stroke: #000000" d="M 434.883 173.613 L 424.311,173.623 L 424.337,175.447 L 422.744,175.43 L 422.732,173.683 L 421.46,173.685 C 420.74,173.662 420.097,173.624 419.669,173.467 C 419.165,173.323 418.786,172.998 418.439,172.427 C 418.122,172.01 417.9,171.257 417.88,170.307 C 417.932,169.74 418.046,169.082 418.069,168.363 L 419.874,168.658 C 419.884,169.133 419.803,169.545 419.708,169.882 C 419.761,170.587 419.925,171.033 420.122,171.234 C 420.425,171.575 420.929,171.718 421.62,171.587 L 422.738,171.615 L 422.764,169.225 L 424.357,169.241 L 424.332,171.631 L 434.904,171.621 L 434.883,173.613"/>
    <path style="fill: none; fill-opacity:0; stroke-width: 0.02; stroke-linecap: round; stroke: #000000" d="M 420.559 167.654 L 418.183,167.705 L 418.19,165.636 L 420.565,165.585 L 420.559,167.654"/>
    <path style="fill: none; fill-opacity:0; stroke-width: 0.02; stroke-linecap: round; stroke: #000000" d="M 434.947 167.638 L 422.795,167.708 L 422.802,165.639 L 434.968,165.646 L 434.947,167.638"/>
    <path style="fill: none; fill-opacity:0; stroke-width: 0.02; stroke-linecap: round; stroke: #000000" d="M 435.871 162.852 L 436.199,160.802 C 436.828,160.763 437.259,160.522 437.508,160.157 C 437.896,159.686 438.087,159.014 438.143,158.049 C 438.061,157.19 437.839,156.437 437.492,155.867 C 437.084,155.387 436.551,155.09 435.941,154.808 C 435.451,154.742 434.563,154.671 433.291,154.673 C 434.262,155.602 434.787,156.696 434.88,158.03 C 434.801,159.715 434.251,161.011 433.062,161.872 C 431.887,162.809 430.458,163.239 428.788,163.236 C 427.684,163.286 426.613,163.09 425.576,162.65 C 424.616,162.196 423.871,161.621 423.313,160.772 C 422.861,160.063 422.596,159.079 422.469,157.99 C 422.515,156.55 423.094,155.407 424.269,154.47 L 422.752,154.438 L 422.788,152.523 L 433.284,152.527 C 435.122,152.578 436.437,152.806 437.215,153.136 C 438.022,153.62 438.613,154.224 439.08,155.01 C 439.484,155.888 439.75,156.871 439.814,158.052 C 439.768,159.491 439.433,160.668 438.811,161.58 C 438.111,162.508 437.157,162.927 435.871,162.852 L 435.871,162.852"/>
    <path style="fill: none; fill-opacity:0; stroke-width: 0.02; stroke-linecap: round; stroke: #000000" d="M 428.626 161.12 C 430.22,161.137 431.433,160.828 432.114,160.222 C 432.948,159.588 433.278,158.81 433.166,157.797 C 433.237,156.909 432.924,156.094 432.165,155.442 C 431.482,154.776 430.321,154.519 428.727,154.502 C 427.302,154.533 426.165,154.827 425.331,155.462 C 424.588,156.159 424.181,156.951 424.187,157.824 C 424.208,158.775 424.598,159.576 425.342,160.15 C 426.116,160.879 427.201,161.151 428.626,161.12 L 428.626,161.12"/>
  </g>
  <g>
    <polygon style="fill: #ffffff" points="300.7,200.3 370.9,200.3 370.9,247 292.9,247 292.9,204.97 "/>
    <polygon style="fill: none; fill-opacity:0; stroke-width: 2; stroke: #0000ff" points="300.7,200.3 370.9,200.3 370.9,247 292.9,247 292.9,204.97 "/>
    <text font-size="12.8" style="fill: #000000;text-anchor:middle;font-family:sans-serif;font-style:normal;font-weight:normal" x="333.85" y="228.817">
      <tspan x="333.85" y="228.817"></tspan>
    </text>
  </g>
  <g>
    <polygon style="fill: #ffffff" points="315.7,189.3 385.9,189.3 385.9,236 307.9,236 307.9,193.97 "/>
    <polygon style="fill: none; fill-opacity:0; stroke-width: 2; stroke: #0000ff" points="315.7,189.3 385.9,189.3 385.9,236 307.9,236 307.9,193.97 "/>
    <text font-size="12.8" style="fill: #000000;text-anchor:middle;font-family:sans-serif;font-style:normal;font-weight:normal" x="348.85" y="217.817">
      <tspan x="348.85" y="217.817"></tspan>
    </text>
  </g>
  <g>
    <polygon style="fill: #ffffff" points="327.7,177.3 397.9,177.3 397.9,224 319.9,224 319.9,181.97 "/>
    <polygon style="fill: none; fill-opacity:0; stroke-width: 2; stroke: #0000ff" points="327.7,177.3 397.9,177.3 397.9,224 319.9,224 319.9,181.97 "/>
    <text font-size="12.8" style="fill: #000000;text-anchor:middle;font-family:sans-serif;font-style:normal;font-weight:normal" x="360.85" y="205.817">
      <tspan x="360.85" y="205.817">.ini files</tspan>
    </text>
  </g>
</svg>
