<?xml version="1.0" encoding="UTF-8" standalone="no"?>
<!DOCTYPE svg PUBLIC "-//W3C//DTD SVG 1.0//EN" "http://www.w3.org/TR/2001/PR-SVG-20010719/DTD/svg10.dtd">
<svg width="55cm" height="26cm" viewBox="49 100 1091 516" xmlns="http://www.w3.org/2000/svg" xmlns:xlink="http://www.w3.org/1999/xlink">
  <g>
    <rect style="fill: #9ff0f0" x="364" y="197" width="150" height="76"/>
    <rect style="fill: none; fill-opacity:0; stroke-width: 2; stroke: #000000" x="364" y="197" width="150" height="76"/>
    <text font-size="15.8044" style="fill: #000000;text-anchor:middle;font-family:Arial;font-style:normal;font-weight:normal" x="439" y="229.544">
      <tspan x="439" y="229.544">5 internal models</tspan>
      <tspan x="439" y="249.3">"RMER"</tspan>
    </text>
  </g>
  <g>
    <rect style="fill: #ffffff" x="89.475" y="112" width="127.05" height="38"/>
    <rect style="fill: none; fill-opacity:0; stroke-width: 2; stroke: #000000" x="89.475" y="112" width="127.05" height="38"/>
    <text font-size="12.8" style="fill: #000000;text-anchor:middle;font-family:sans-serif;font-style:normal;font-weight:normal" x="153" y="134.9">
      <tspan x="153" y="134.9">Wilson &amp; Walker</tspan>
    </text>
  </g>
  <g>
    <rect style="fill: #ffffff" x="96" y="162.4" width="114.85" height="38"/>
    <rect style="fill: none; fill-opacity:0; stroke-width: 2; stroke: #000000" x="96" y="162.4" width="114.85" height="38"/>
    <text font-size="12.8" style="fill: #000000;text-anchor:middle;font-family:sans-serif;font-style:normal;font-weight:normal" x="153.425" y="185.3">
      <tspan x="153.425" y="185.3">Sparks</tspan>
    </text>
  </g>
  <g>
    <rect style="fill: #ffffff" x="96.5" y="214.6" width="114.85" height="38"/>
    <rect style="fill: none; fill-opacity:0; stroke-width: 2; stroke: #000000" x="96.5" y="214.6" width="114.85" height="38"/>
    <text font-size="12.8" style="fill: #000000;text-anchor:middle;font-family:sans-serif;font-style:normal;font-weight:normal" x="153.925" y="237.5">
      <tspan x="153.925" y="237.5">Mastin</tspan>
    </text>
  </g>
  <g>
    <rect style="fill: #ffffff" x="95" y="268.8" width="114.85" height="38"/>
    <rect style="fill: none; fill-opacity:0; stroke-width: 2; stroke: #000000" x="95" y="268.8" width="114.85" height="38"/>
    <text font-size="12.8" style="fill: #000000;text-anchor:middle;font-family:sans-serif;font-style:normal;font-weight:normal" x="152.425" y="291.7">
      <tspan x="152.425" y="291.7">Gudmundsson</tspan>
    </text>
  </g>
  <g>
    <rect style="fill: #ffffff" x="50.3" y="323" width="214.3" height="38"/>
    <rect style="fill: none; fill-opacity:0; stroke-width: 2; stroke: #000000" x="50.3" y="323" width="214.3" height="38"/>
    <text font-size="12.8" style="fill: #000000;text-anchor:middle;font-family:sans-serif;font-style:normal;font-weight:normal" x="157.45" y="345.9">
      <tspan x="157.45" y="345.9">mod. Degruyter &amp; Bonadonna</tspan>
    </text>
  </g>
  <text font-size="12.8" style="fill: #000000;text-anchor:start;font-family:sans-serif;font-style:normal;font-weight:normal" x="153.425" y="181.4">
    <tspan x="153.425" y="181.4"></tspan>
  </text>
  <text font-size="12.8" style="fill: #000000;text-anchor:start;font-family:sans-serif;font-style:normal;font-weight:normal" x="152.425" y="287.8">
    <tspan x="152.425" y="287.8"></tspan>
  </text>
  <text font-size="12.8" style="fill: #000000;text-anchor:start;font-family:sans-serif;font-style:normal;font-weight:normal" x="152.425" y="287.8">
    <tspan x="152.425" y="287.8"></tspan>
  </text>
  <g>
    <line style="fill: none; fill-opacity:0; stroke-width: 3; stroke: #000000" x1="439" y1="273" x2="439" y2="337.5"/>
    <polygon style="fill: #000000" points="434,337.5 439,347.5 444,337.5 "/>
    <polygon style="fill: none; fill-opacity:0; stroke-width: 3; stroke: #000000" points="434,337.5 439,347.5 444,337.5 "/>
  </g>
  <g>
    <polyline style="fill: none; fill-opacity:0; stroke-width: 2; stroke: #000000" points="213.424,128 311,128 311,208.5 350,208.5 "/>
    <polygon style="fill: #000000" points="350,213.5 360,208.5 350,203.5 "/>
    <polygon style="fill: none; fill-opacity:0; stroke-width: 2; stroke: #000000" points="350,213.5 360,208.5 350,203.5 "/>
  </g>
  <g>
    <polyline style="fill: none; fill-opacity:0; stroke-width: 2; stroke: #000000" points="210.85,181.4 296,181.4 296,221 350,221 "/>
    <polygon style="fill: #000000" points="350,226 360,221 350,216 "/>
    <polygon style="fill: none; fill-opacity:0; stroke-width: 2; stroke: #000000" points="350,226 360,221 350,216 "/>
  </g>
  <g>
    <polyline style="fill: none; fill-opacity:0; stroke-width: 2; stroke: #000000" points="209.85,287.8 301,287.8 301,246 350,246 "/>
    <polygon style="fill: #000000" points="350,251 360,246 350,241 "/>
    <polygon style="fill: none; fill-opacity:0; stroke-width: 2; stroke: #000000" points="350,251 360,246 350,241 "/>
  </g>
  <g>
    <polyline style="fill: none; fill-opacity:0; stroke-width: 2; stroke: #000000" points="253,342 315,342 315,259.5 350,259.5 "/>
    <polygon style="fill: #000000" points="350,264.5 360,259.5 350,254.5 "/>
    <polygon style="fill: none; fill-opacity:0; stroke-width: 2; stroke: #000000" points="350,264.5 360,259.5 350,254.5 "/>
  </g>
  <g>
    <line style="fill: none; fill-opacity:0; stroke-width: 2; stroke: #000000" x1="211.35" y1="233.6" x2="350" y2="233.044"/>
    <polygon style="fill: #000000" points="350.02,238.044 360,233.004 349.98,228.044 "/>
    <polygon style="fill: none; fill-opacity:0; stroke-width: 2; stroke: #000000" points="350.02,238.044 360,233.004 349.98,228.044 "/>
  </g>
  <g>
    <ellipse style="fill: #ffffff" cx="280" cy="340.5" rx="12" ry="10.5"/>
    <ellipse style="fill: none; fill-opacity:0; stroke-width: 2; stroke: #000000" cx="280" cy="340.5" rx="12" ry="10.5"/>
    <line style="fill: none; fill-opacity:0; stroke-width: 2; stroke: #000000" x1="271.515" y1="333.075" x2="288.485" y2="347.925"/>
    <line style="fill: none; fill-opacity:0; stroke-width: 2; stroke: #000000" x1="271.515" y1="347.925" x2="288.485" y2="333.075"/>
  </g>
  <g>
    <ellipse style="fill: #ffffff" cx="253.5" cy="126.7" rx="12" ry="10.5"/>
    <ellipse style="fill: none; fill-opacity:0; stroke-width: 2; stroke: #000000" cx="253.5" cy="126.7" rx="12" ry="10.5"/>
    <line style="fill: none; fill-opacity:0; stroke-width: 2; stroke: #000000" x1="245.015" y1="119.275" x2="261.985" y2="134.125"/>
    <line style="fill: none; fill-opacity:0; stroke-width: 2; stroke: #000000" x1="245.015" y1="134.125" x2="261.985" y2="119.275"/>
  </g>
  <g>
    <ellipse style="fill: #ffffff" cx="253" cy="179.9" rx="12" ry="10.5"/>
    <ellipse style="fill: none; fill-opacity:0; stroke-width: 2; stroke: #000000" cx="253" cy="179.9" rx="12" ry="10.5"/>
    <line style="fill: none; fill-opacity:0; stroke-width: 2; stroke: #000000" x1="244.515" y1="172.475" x2="261.485" y2="187.325"/>
    <line style="fill: none; fill-opacity:0; stroke-width: 2; stroke: #000000" x1="244.515" y1="187.325" x2="261.485" y2="172.475"/>
  </g>
  <g>
    <ellipse style="fill: #ffffff" cx="255.5" cy="233.7" rx="12" ry="10.5"/>
    <ellipse style="fill: none; fill-opacity:0; stroke-width: 2; stroke: #000000" cx="255.5" cy="233.7" rx="12" ry="10.5"/>
    <line style="fill: none; fill-opacity:0; stroke-width: 2; stroke: #000000" x1="247.015" y1="226.275" x2="263.985" y2="241.125"/>
    <line style="fill: none; fill-opacity:0; stroke-width: 2; stroke: #000000" x1="247.015" y1="241.125" x2="263.985" y2="226.275"/>
  </g>
  <g>
    <ellipse style="fill: #ffffff" cx="254" cy="287.9" rx="12" ry="10.5"/>
    <ellipse style="fill: none; fill-opacity:0; stroke-width: 2; stroke: #000000" cx="254" cy="287.9" rx="12" ry="10.5"/>
    <line style="fill: none; fill-opacity:0; stroke-width: 2; stroke: #000000" x1="245.515" y1="280.475" x2="262.485" y2="295.325"/>
    <line style="fill: none; fill-opacity:0; stroke-width: 2; stroke: #000000" x1="245.515" y1="295.325" x2="262.485" y2="280.475"/>
  </g>
  <g>
    <rect style="fill: #f7b2b2" x="532" y="213" width="122" height="45"/>
    <rect style="fill: none; fill-opacity:0; stroke-width: 2; stroke: #000000" x="532" y="213" width="122" height="45"/>
    <text font-size="12.8" style="fill: #000000;text-anchor:middle;font-family:sans-serif;font-style:normal;font-weight:normal" x="593" y="239.4">
      <tspan x="593" y="239.4">Woodhouse</tspan>
    </text>
  </g>
  <g>
    <line style="fill: none; fill-opacity:0; stroke-width: 3; stroke: #000000" x1="593" y1="258" x2="593" y2="338.5"/>
    <polygon style="fill: #000000" points="588,338.5 593,348.5 598,338.5 "/>
    <polygon style="fill: none; fill-opacity:0; stroke-width: 3; stroke: #000000" points="588,338.5 593,348.5 598,338.5 "/>
  </g>
  <g>
    <rect style="fill: #ffff00" x="420" y="353" width="193" height="80"/>
    <rect style="fill: none; fill-opacity:0; stroke-width: 2; stroke: #000000" x="420" y="353" width="193" height="80"/>
    <text font-size="15.8044" style="fill: #000000;text-anchor:middle;font-family:sans-serif;font-style:normal;font-weight:normal" x="516.5" y="387.894">
      <tspan x="516.5" y="387.894">Conventional models</tspan>
      <tspan x="516.5" y="407.65">"CMER"</tspan>
    </text>
  </g>
  <g>
    <ellipse style="fill: #ffffff" cx="439.5" cy="310.7" rx="12" ry="10.5"/>
    <ellipse style="fill: none; fill-opacity:0; stroke-width: 2; stroke: #000000" cx="439.5" cy="310.7" rx="12" ry="10.5"/>
    <line style="fill: none; fill-opacity:0; stroke-width: 2; stroke: #000000" x1="431.015" y1="303.275" x2="447.985" y2="318.125"/>
    <line style="fill: none; fill-opacity:0; stroke-width: 2; stroke: #000000" x1="431.015" y1="318.125" x2="447.985" y2="303.275"/>
  </g>
  <g>
    <ellipse style="fill: #ffffff" cx="594" cy="309.9" rx="12" ry="10.5"/>
    <ellipse style="fill: none; fill-opacity:0; stroke-width: 2; stroke: #000000" cx="594" cy="309.9" rx="12" ry="10.5"/>
    <line style="fill: none; fill-opacity:0; stroke-width: 2; stroke: #000000" x1="585.515" y1="302.475" x2="602.485" y2="317.325"/>
    <line style="fill: none; fill-opacity:0; stroke-width: 2; stroke: #000000" x1="585.515" y1="317.325" x2="602.485" y2="302.475"/>
  </g>
  <text font-size="12.8" style="fill: #000000;text-anchor:start;font-family:sans-serif;font-style:normal;font-weight:normal" x="424" y="297">
    <tspan x="424" y="297">wt fac.</tspan>
  </text>
  <text font-size="12.8" style="fill: #000000;text-anchor:start;font-family:sans-serif;font-style:normal;font-weight:normal" x="577" y="295.9">
    <tspan x="577" y="295.9">wt fac.</tspan>
  </text>
  <text font-size="12.8" style="fill: #000000;text-anchor:start;font-family:sans-serif;font-style:normal;font-weight:normal" x="239" y="112.2">
    <tspan x="239" y="112.2">wt fac.</tspan>
  </text>
  <text font-size="12.8" style="fill: #000000;text-anchor:start;font-family:sans-serif;font-style:normal;font-weight:normal" x="236.5" y="163.4">
    <tspan x="236.5" y="163.4">wt fac.</tspan>
  </text>
  <text font-size="12.8" style="fill: #000000;text-anchor:start;font-family:sans-serif;font-style:normal;font-weight:normal" x="239" y="218.6">
    <tspan x="239" y="218.6">wt fac.</tspan>
  </text>
  <text font-size="12.8" style="fill: #000000;text-anchor:start;font-family:sans-serif;font-style:normal;font-weight:normal" x="239.5" y="273.8">
    <tspan x="239.5" y="273.8">wt fac.</tspan>
  </text>
  <text font-size="12.8" style="fill: #000000;text-anchor:start;font-family:sans-serif;font-style:normal;font-weight:normal" x="267" y="326">
    <tspan x="267" y="326">wt fac.</tspan>
  </text>
  <g>
    <rect style="fill: #98ffa8" x="626.5" y="353.566" width="193" height="81.2667"/>
    <rect style="fill: none; fill-opacity:0; stroke-width: 2; stroke: #000000" x="626.5" y="353.566" width="193" height="81.2667"/>
    <text font-size="15.8044" style="fill: #000000;text-anchor:middle;font-family:sans-serif;font-style:normal;font-weight:normal" x="723" y="389.094">
      <tspan x="723" y="389.094">Manually added</tspan>
      <tspan x="723" y="408.849">MER</tspan>
    </text>
  </g>
  <g>
    <rect style="fill: #cb9ce0" x="833.1" y="354.2" width="197.8" height="81.2667"/>
    <rect style="fill: none; fill-opacity:0; stroke-width: 2; stroke: #000000" x="833.1" y="354.2" width="197.8" height="81.2667"/>
    <text font-size="15.8044" style="fill: #000000;text-anchor:middle;font-family:sans-serif;font-style:normal;font-weight:normal" x="932" y="389.728">
      <tspan x="932" y="389.728">Experimental systems</tspan>
      <tspan x="932" y="409.483">"exp. MER"</tspan>
    </text>
  </g>
  <g>
    <rect style="fill: #ffffff" x="777.208" y="132.2" width="114.85" height="38"/>
    <rect style="fill: none; fill-opacity:0; stroke-width: 2; stroke: #000000" x="777.208" y="132.2" width="114.85" height="38"/>
    <text font-size="12.8" style="fill: #000000;text-anchor:middle;font-family:sans-serif;font-style:normal;font-weight:normal" x="834.633" y="155.1">
      <tspan x="834.633" y="155.1">E-Sensors</tspan>
    </text>
  </g>
  <g>
    <rect style="fill: #ffffff" x="739.5" y="205.2" width="114.85" height="38"/>
    <rect style="fill: none; fill-opacity:0; stroke-width: 2; stroke: #000000" x="739.5" y="205.2" width="114.85" height="38"/>
    <text font-size="12.8" style="fill: #000000;text-anchor:middle;font-family:sans-serif;font-style:normal;font-weight:normal" x="796.925" y="228.1">
      <tspan x="796.925" y="228.1">Infrasound</tspan>
    </text>
  </g>
  <g>
    <rect style="fill: #ffffff" x="952" y="134.4" width="114.85" height="38"/>
    <rect style="fill: none; fill-opacity:0; stroke-width: 2; stroke: #000000" x="952" y="134.4" width="114.85" height="38"/>
    <text font-size="12.8" style="fill: #000000;text-anchor:middle;font-family:sans-serif;font-style:normal;font-weight:normal" x="1009.43" y="157.3">
      <tspan x="1009.43" y="157.3">Pulse analysis</tspan>
    </text>
  </g>
  <g>
    <rect style="fill: #ffffff" x="1010.65" y="208.2" width="128.55" height="38"/>
    <rect style="fill: none; fill-opacity:0; stroke-width: 2; stroke: #000000" x="1010.65" y="208.2" width="128.55" height="38"/>
    <text font-size="12.8" style="fill: #000000;text-anchor:middle;font-family:sans-serif;font-style:normal;font-weight:normal" x="1074.93" y="231.1">
      <tspan x="1074.93" y="231.1">Radar scattering</tspan>
    </text>
  </g>
  <g>
    <polyline style="fill: none; fill-opacity:0; stroke-width: 2; stroke: #000000" points="863.344,170.2 864,188.5 920,189.5 920.934,344.5 "/>
    <polygon style="fill: #000000" points="915.934,344.53 920.994,354.5 925.934,344.47 "/>
    <polygon style="fill: none; fill-opacity:0; stroke-width: 2; stroke: #000000" points="915.934,344.53 920.994,354.5 925.934,344.47 "/>
  </g>
  <g>
    <polyline style="fill: none; fill-opacity:0; stroke-width: 2; stroke: #000000" points="854.35,224.2 877,223.5 877.687,343.2 "/>
    <polygon style="fill: #000000" points="872.687,343.229 877.744,353.2 882.687,343.171 "/>
    <polygon style="fill: none; fill-opacity:0; stroke-width: 2; stroke: #000000" points="872.687,343.229 877.744,353.2 882.687,343.171 "/>
  </g>
  <g>
    <polyline style="fill: none; fill-opacity:0; stroke-width: 2; stroke: #000000" points="1005,171.5 1005,191.5 966,190.5 965.067,344.5 "/>
    <polygon style="fill: #000000" points="960.067,344.47 965.006,354.5 970.067,344.531 "/>
    <polygon style="fill: none; fill-opacity:0; stroke-width: 2; stroke: #000000" points="960.067,344.47 965.006,354.5 970.067,344.531 "/>
  </g>
  <g>
    <polyline style="fill: none; fill-opacity:0; stroke-width: 2; stroke: #000000" points="1017.5,227.2 1003,227.5 1002.09,344.5 "/>
    <polygon style="fill: #000000" points="997.086,344.461 1002.01,354.5 1007.09,344.539 "/>
    <polygon style="fill: none; fill-opacity:0; stroke-width: 2; stroke: #000000" points="997.086,344.461 1002.01,354.5 1007.09,344.539 "/>
  </g>
  <g>
    <ellipse style="fill: #ffffff" cx="920.5" cy="307.2" rx="12" ry="10.5"/>
    <ellipse style="fill: none; fill-opacity:0; stroke-width: 2; stroke: #000000" cx="920.5" cy="307.2" rx="12" ry="10.5"/>
    <line style="fill: none; fill-opacity:0; stroke-width: 2; stroke: #000000" x1="912.015" y1="299.775" x2="928.985" y2="314.625"/>
    <line style="fill: none; fill-opacity:0; stroke-width: 2; stroke: #000000" x1="912.015" y1="314.625" x2="928.985" y2="299.775"/>
  </g>
  <g>
    <ellipse style="fill: #ffffff" cx="877" cy="284.4" rx="12" ry="10.5"/>
    <ellipse style="fill: none; fill-opacity:0; stroke-width: 2; stroke: #000000" cx="877" cy="284.4" rx="12" ry="10.5"/>
    <line style="fill: none; fill-opacity:0; stroke-width: 2; stroke: #000000" x1="868.515" y1="276.975" x2="885.485" y2="291.825"/>
    <line style="fill: none; fill-opacity:0; stroke-width: 2; stroke: #000000" x1="868.515" y1="291.825" x2="885.485" y2="276.975"/>
  </g>
  <g>
    <ellipse style="fill: #ffffff" cx="1002.5" cy="281.6" rx="12" ry="10.5"/>
    <ellipse style="fill: none; fill-opacity:0; stroke-width: 2; stroke: #000000" cx="1002.5" cy="281.6" rx="12" ry="10.5"/>
    <line style="fill: none; fill-opacity:0; stroke-width: 2; stroke: #000000" x1="994.015" y1="274.175" x2="1010.99" y2="289.025"/>
    <line style="fill: none; fill-opacity:0; stroke-width: 2; stroke: #000000" x1="994.015" y1="289.025" x2="1010.99" y2="274.175"/>
  </g>
  <g>
    <ellipse style="fill: #ffffff" cx="966.5" cy="308.2" rx="12" ry="10.5"/>
    <ellipse style="fill: none; fill-opacity:0; stroke-width: 2; stroke: #000000" cx="966.5" cy="308.2" rx="12" ry="10.5"/>
    <line style="fill: none; fill-opacity:0; stroke-width: 2; stroke: #000000" x1="958.015" y1="300.775" x2="974.985" y2="315.625"/>
    <line style="fill: none; fill-opacity:0; stroke-width: 2; stroke: #000000" x1="958.015" y1="315.625" x2="974.985" y2="300.775"/>
  </g>
  <text font-size="12.8" style="fill: #000000;text-anchor:start;font-family:sans-serif;font-style:normal;font-weight:normal" x="986.5" y="270.5">
    <tspan x="986.5" y="270.5">wt fac.</tspan>
  </text>
  <text font-size="12.8" style="fill: #000000;text-anchor:start;font-family:sans-serif;font-style:normal;font-weight:normal" x="904" y="292.7">
    <tspan x="904" y="292.7">wt fac.</tspan>
  </text>
  <text font-size="12.8" style="fill: #000000;text-anchor:start;font-family:sans-serif;font-style:normal;font-weight:normal" x="860.5" y="269.9">
    <tspan x="860.5" y="269.9">wt fac.</tspan>
  </text>
  <text font-size="12.8" style="fill: #000000;text-anchor:start;font-family:sans-serif;font-style:normal;font-weight:normal" x="949.5" y="292.5">
    <tspan x="949.5" y="292.5">wt fac.</tspan>
  </text>
  <g>
    <polyline style="fill: none; fill-opacity:0; stroke-width: 3; stroke: #000000" points="516.5,433 516.5,480.75 669.25,480.75 669.25,517 "/>
    <polygon style="fill: #000000" points="664.25,517 669.25,527 674.25,517 "/>
    <polygon style="fill: none; fill-opacity:0; stroke-width: 3; stroke: #000000" points="664.25,517 669.25,527 674.25,517 "/>
  </g>
  <g>
    <polyline style="fill: none; fill-opacity:0; stroke-width: 3; stroke: #000000" points="932,435.467 932,481.983 775.75,481.983 775.75,517 "/>
    <polygon style="fill: #000000" points="770.75,517 775.75,527 780.75,517 "/>
    <polygon style="fill: none; fill-opacity:0; stroke-width: 3; stroke: #000000" points="770.75,517 775.75,527 780.75,517 "/>
  </g>
  <g>
    <rect style="fill: #ffeb67" x="616" y="528.5" width="213" height="86"/>
    <rect style="fill: none; fill-opacity:0; stroke-width: 2; stroke: #000000" x="616" y="528.5" width="213" height="86"/>
    <text font-size="15.8044" style="fill: #0000ff;text-anchor:middle;font-family:sans-serif;font-style:normal;font-weight:700" x="722.5" y="566.394">
      <tspan x="722.5" y="566.394">Best estimate</tspan>
      <tspan x="722.5" y="586.15">FMER</tspan>
    </text>
  </g>
  <g>
    <ellipse style="fill: #ffffff" cx="591.5" cy="482" rx="12" ry="10.5"/>
    <ellipse style="fill: none; fill-opacity:0; stroke-width: 2; stroke: #000000" cx="591.5" cy="482" rx="12" ry="10.5"/>
    <line style="fill: none; fill-opacity:0; stroke-width: 2; stroke: #000000" x1="583.015" y1="474.575" x2="599.985" y2="489.425"/>
    <line style="fill: none; fill-opacity:0; stroke-width: 2; stroke: #000000" x1="583.015" y1="489.425" x2="599.985" y2="474.575"/>
  </g>
  <text font-size="12.8" style="fill: #000000;text-anchor:start;font-family:sans-serif;font-style:normal;font-weight:normal" x="574.5" y="467.5">
    <tspan x="574.5" y="467.5">wt fac.</tspan>
  </text>
  <g>
    <ellipse style="fill: #ffffff" cx="862" cy="481.2" rx="12" ry="10.5"/>
    <ellipse style="fill: none; fill-opacity:0; stroke-width: 2; stroke: #000000" cx="862" cy="481.2" rx="12" ry="10.5"/>
    <line style="fill: none; fill-opacity:0; stroke-width: 2; stroke: #000000" x1="853.515" y1="473.775" x2="870.485" y2="488.625"/>
    <line style="fill: none; fill-opacity:0; stroke-width: 2; stroke: #000000" x1="853.515" y1="488.625" x2="870.485" y2="473.775"/>
  </g>
  <text font-size="12.8" style="fill: #000000;text-anchor:start;font-family:sans-serif;font-style:normal;font-weight:normal" x="846" y="466.7">
    <tspan x="846" y="466.7">wt fac.</tspan>
  </text>
  <g>
    <line style="fill: none; fill-opacity:0; stroke-width: 3; stroke: #000000" x1="723" y1="434.834" x2="722.561" y2="517"/>
    <polygon style="fill: #000000" points="717.561,516.973 722.508,527 727.561,517.027 "/>
    <polygon style="fill: none; fill-opacity:0; stroke-width: 3; stroke: #000000" points="717.561,516.973 722.508,527 727.561,517.027 "/>
  </g>
  <g>
    <ellipse style="fill: #ffffff" cx="723" cy="488.9" rx="12" ry="10.5"/>
    <ellipse style="fill: none; fill-opacity:0; stroke-width: 2; stroke: #000000" cx="723" cy="488.9" rx="12" ry="10.5"/>
    <line style="fill: none; fill-opacity:0; stroke-width: 2; stroke: #000000" x1="714.515" y1="481.475" x2="731.485" y2="496.325"/>
    <line style="fill: none; fill-opacity:0; stroke-width: 2; stroke: #000000" x1="714.515" y1="496.325" x2="731.485" y2="481.475"/>
  </g>
  <text font-size="12.8" style="fill: #000000;text-anchor:start;font-family:sans-serif;font-style:normal;font-weight:normal" x="706.5" y="475.2">
    <tspan x="706.5" y="475.2">wt fac.</tspan>
  </text>
  <text font-size="12.8" style="fill: #000000;text-anchor:start;font-family:sans-serif;font-style:normal;font-weight:normal" x="439" y="235">
    <tspan x="439" y="235"></tspan>
  </text>
</svg>
