<?xml version="1.0" encoding="UTF-8" standalone="no"?>
<!DOCTYPE svg PUBLIC "-//W3C//DTD SVG 1.0//EN" "http://www.w3.org/TR/2001/PR-SVG-20010719/DTD/svg10.dtd">
<svg width="32cm" height="14cm" viewBox="191 37 633 275" xmlns="http://www.w3.org/2000/svg" xmlns:xlink="http://www.w3.org/1999/xlink">
  <g>
    <rect style="fill: #ffffff" x="193" y="39" width="169" height="98"/>
    <rect style="fill: none; fill-opacity:0; stroke-width: 2; stroke-dasharray: 4; stroke: #000000" x="193" y="39" width="169" height="98"/>
    <text font-size="12.8" style="fill: #000000;text-anchor:middle;font-family:sans-serif;font-style:normal;font-weight:normal" x="277.5" y="91.9">
      <tspan x="277.5" y="91.9"></tspan>
    </text>
  </g>
  <g>
    <line style="fill: none; fill-opacity:0; stroke-width: 2; stroke: #0000ff" x1="271" y1="136" x2="270.143" y2="202.001"/>
    <polygon style="fill: #0000ff" points="265.143,201.936 270.013,212 275.142,202.066 "/>
    <polygon style="fill: none; fill-opacity:0; stroke-width: 2; stroke: #0000ff" points="265.143,201.936 270.013,212 275.142,202.066 "/>
  </g>
  <g>
    <rect style="fill: #ffffff" x="196.45" y="92" width="68.5" height="38"/>
    <rect style="fill: none; fill-opacity:0; stroke-width: 2; stroke: #000000" x="196.45" y="92" width="68.5" height="38"/>
    <text font-size="12.8" style="fill: #000000;text-anchor:middle;font-family:sans-serif;font-style:normal;font-weight:normal" x="230.7" y="114.9">
      <tspan x="230.7" y="114.9">Air Obs</tspan>
    </text>
  </g>
  <g>
    <rect style="fill: #ffffff" x="202.752" y="44.6" width="84.7" height="38"/>
    <rect style="fill: none; fill-opacity:0; stroke-width: 2; stroke: #000000" x="202.752" y="44.6" width="84.7" height="38"/>
    <text font-size="12.8" style="fill: #000000;text-anchor:middle;font-family:sans-serif;font-style:normal;font-weight:normal" x="245.102" y="67.5">
      <tspan x="245.102" y="67.5">Webcams</tspan>
    </text>
  </g>
  <g>
    <rect style="fill: #ffffff" x="292.324" y="45.2" width="58.35" height="38"/>
    <rect style="fill: none; fill-opacity:0; stroke-width: 2; stroke: #000000" x="292.324" y="45.2" width="58.35" height="38"/>
    <text font-size="12.8" style="fill: #000000;text-anchor:middle;font-family:sans-serif;font-style:normal;font-weight:normal" x="321.499" y="68.1">
      <tspan x="321.499" y="68.1">Other</tspan>
    </text>
  </g>
  <g>
    <rect style="fill: #ffffff" x="265.976" y="91.6" width="94.25" height="38"/>
    <rect style="fill: none; fill-opacity:0; stroke-width: 2; stroke: #000000" x="265.976" y="91.6" width="94.25" height="38"/>
    <text font-size="12.8" style="fill: #000000;text-anchor:middle;font-family:sans-serif;font-style:normal;font-weight:normal" x="313.101" y="114.5">
      <tspan x="313.101" y="114.5">GroundObs</tspan>
    </text>
  </g>
  <g>
    <rect style="fill: none; fill-opacity:0; stroke-width: 2; stroke: #000000" x="369.224" y="83.2" width="62.55" height="54"/>
    <text font-size="12.8" style="fill: #000000;text-anchor:middle;font-family:sans-serif;font-style:normal;font-weight:normal" x="400.499" y="106.1">
      <tspan x="400.499" y="106.1">ISKEF</tspan>
      <tspan x="400.499" y="122.1">m     a</tspan>
    </text>
  </g>
  <g>
    <rect style="fill: #ffffff" x="642.45" y="98.8" width="58.9" height="38"/>
    <rect style="fill: none; fill-opacity:0; stroke-width: 2; stroke: #000000" x="642.45" y="98.8" width="58.9" height="38"/>
    <text font-size="12.8" style="fill: #000000;text-anchor:middle;font-family:sans-serif;font-style:normal;font-weight:normal" x="671.9" y="121.7">
      <tspan x="671.9" y="121.7">CAM1</tspan>
    </text>
  </g>
  <g>
    <rect style="fill: #ffffff" x="433.85" y="83.6" width="62.55" height="54"/>
    <rect style="fill: none; fill-opacity:0; stroke-width: 2; stroke: #000000" x="433.85" y="83.6" width="62.55" height="54"/>
    <text font-size="12.8" style="fill: #000000;text-anchor:middle;font-family:sans-serif;font-style:normal;font-weight:normal" x="465.125" y="106.5">
      <tspan x="465.125" y="106.5">ISEGS</tspan>
      <tspan x="465.125" y="122.5">m     a</tspan>
    </text>
  </g>
  <g>
    <rect style="fill: #ffffff" x="508.85" y="83.6" width="62.55" height="54"/>
    <rect style="fill: none; fill-opacity:0; stroke-width: 2; stroke: #000000" x="508.85" y="83.6" width="62.55" height="54"/>
    <text font-size="12.8" style="fill: #000000;text-anchor:middle;font-family:sans-serif;font-style:normal;font-weight:normal" x="540.125" y="106.5">
      <tspan x="540.125" y="106.5">ISX1</tspan>
      <tspan x="540.125" y="122.5">m     a</tspan>
    </text>
  </g>
  <g>
    <rect style="fill: #ffffff" x="573.476" y="84" width="62.55" height="54"/>
    <rect style="fill: none; fill-opacity:0; stroke-width: 2; stroke: #000000" x="573.476" y="84" width="62.55" height="54"/>
    <text font-size="12.8" style="fill: #000000;text-anchor:middle;font-family:sans-serif;font-style:normal;font-weight:normal" x="604.751" y="106.9">
      <tspan x="604.751" y="106.9">ISX2</tspan>
      <tspan x="604.751" y="122.9">m     a</tspan>
    </text>
  </g>
  <g>
    <rect style="fill: #ffffff" x="703.65" y="98.6" width="58.9" height="38"/>
    <rect style="fill: none; fill-opacity:0; stroke-width: 2; stroke: #000000" x="703.65" y="98.6" width="58.9" height="38"/>
    <text font-size="12.8" style="fill: #000000;text-anchor:middle;font-family:sans-serif;font-style:normal;font-weight:normal" x="733.1" y="121.5">
      <tspan x="733.1" y="121.5">CAM2</tspan>
    </text>
  </g>
  <g>
    <rect style="fill: #ffffff" x="764.65" y="98.6" width="58.9" height="38"/>
    <rect style="fill: none; fill-opacity:0; stroke-width: 2; stroke: #000000" x="764.65" y="98.6" width="58.9" height="38"/>
    <text font-size="12.8" style="fill: #000000;text-anchor:middle;font-family:sans-serif;font-style:normal;font-weight:normal" x="794.1" y="121.5">
      <tspan x="794.1" y="121.5">CAM3</tspan>
    </text>
  </g>
  <g>
    <line style="fill: none; fill-opacity:0; stroke-width: 2; stroke: #ff0000" x1="671.9" y1="136.8" x2="672.731" y2="201.615"/>
    <polygon style="fill: #ff0000" points="667.731,201.679 672.859,211.614 677.731,201.551 "/>
    <polygon style="fill: none; fill-opacity:0; stroke-width: 2; stroke: #ff0000" points="667.731,201.679 672.859,211.614 677.731,201.551 "/>
  </g>
  <g>
    <line style="fill: none; fill-opacity:0; stroke-width: 2; stroke: #ff0000" x1="733.1" y1="136.6" x2="733.15" y2="202.426"/>
    <polygon style="fill: #ff0000" points="728.15,202.43 733.157,212.426 738.15,202.422 "/>
    <polygon style="fill: none; fill-opacity:0; stroke-width: 2; stroke: #ff0000" points="728.15,202.43 733.157,212.426 738.15,202.422 "/>
  </g>
  <g>
    <line style="fill: none; fill-opacity:0; stroke-width: 2; stroke: #ff0000" x1="794.1" y1="136.6" x2="794.014" y2="202"/>
    <polygon style="fill: #ff0000" points="789.014,201.993 794.001,212 799.014,202.007 "/>
    <polygon style="fill: none; fill-opacity:0; stroke-width: 2; stroke: #ff0000" points="789.014,201.993 794.001,212 799.014,202.007 "/>
  </g>
  <g>
    <line style="fill: none; fill-opacity:0; stroke-width: 2; stroke: #ff0000" x1="621.418" y1="126.2" x2="621.053" y2="202"/>
    <polygon style="fill: #ff0000" points="616.053,201.976 621.005,212 626.053,202.024 "/>
    <polygon style="fill: none; fill-opacity:0; stroke-width: 2; stroke: #ff0000" points="616.053,201.976 621.005,212 626.053,202.024 "/>
  </g>
  <g>
    <line style="fill: none; fill-opacity:0; stroke-width: 2; stroke: #0000ff" x1="592.384" y1="126.605" x2="592.017" y2="202.404"/>
    <polygon style="fill: #0000ff" points="587.017,202.38 591.969,212.404 597.017,202.428 "/>
    <polygon style="fill: none; fill-opacity:0; stroke-width: 2; stroke: #0000ff" points="587.017,202.38 591.969,212.404 597.017,202.428 "/>
  </g>
  <g>
    <line style="fill: none; fill-opacity:0; stroke-width: 2; stroke: #ff0000" x1="556.418" y1="126.605" x2="556.053" y2="202.404"/>
    <polygon style="fill: #ff0000" points="551.053,202.38 556.005,212.404 561.053,202.428 "/>
    <polygon style="fill: none; fill-opacity:0; stroke-width: 2; stroke: #ff0000" points="551.053,202.38 556.005,212.404 561.053,202.428 "/>
  </g>
  <g>
    <line style="fill: none; fill-opacity:0; stroke-width: 2; stroke: #0000ff" x1="527.384" y1="126.01" x2="527.017" y2="201.81"/>
    <polygon style="fill: #0000ff" points="522.017,201.786 526.969,211.81 532.017,201.834 "/>
    <polygon style="fill: none; fill-opacity:0; stroke-width: 2; stroke: #0000ff" points="522.017,201.786 526.969,211.81 532.017,201.834 "/>
  </g>
  <g>
    <line style="fill: none; fill-opacity:0; stroke-width: 2; stroke: #ff0000" x1="481.418" y1="126.2" x2="481.053" y2="202"/>
    <polygon style="fill: #ff0000" points="476.053,201.976 481.005,212 486.053,202.024 "/>
    <polygon style="fill: none; fill-opacity:0; stroke-width: 2; stroke: #ff0000" points="476.053,201.976 481.005,212 486.053,202.024 "/>
  </g>
  <g>
    <line style="fill: none; fill-opacity:0; stroke-width: 2; stroke: #0000ff" x1="452.384" y1="126.605" x2="452.017" y2="202.404"/>
    <polygon style="fill: #0000ff" points="447.017,202.38 451.969,212.404 457.017,202.428 "/>
    <polygon style="fill: none; fill-opacity:0; stroke-width: 2; stroke: #0000ff" points="447.017,202.38 451.969,212.404 457.017,202.428 "/>
  </g>
  <g>
    <line style="fill: none; fill-opacity:0; stroke-width: 2; stroke: #ff0000" x1="417.418" y1="126.605" x2="417.053" y2="202.404"/>
    <polygon style="fill: #ff0000" points="412.053,202.38 417.005,212.404 422.053,202.428 "/>
    <polygon style="fill: none; fill-opacity:0; stroke-width: 2; stroke: #ff0000" points="412.053,202.38 417.005,212.404 422.053,202.428 "/>
  </g>
  <g>
    <line style="fill: none; fill-opacity:0; stroke-width: 2; stroke: #0000ff" x1="388.384" y1="126.01" x2="388.017" y2="201.81"/>
    <polygon style="fill: #0000ff" points="383.017,201.786 387.969,211.81 393.017,201.834 "/>
    <polygon style="fill: none; fill-opacity:0; stroke-width: 2; stroke: #0000ff" points="383.017,201.786 387.969,211.81 393.017,201.834 "/>
  </g>
  <g>
    <ellipse style="fill: #ffffff" cx="271" cy="171.5" rx="9" ry="7.5"/>
    <ellipse style="fill: none; fill-opacity:0; stroke-width: 2; stroke: #000000" cx="271" cy="171.5" rx="9" ry="7.5"/>
    <line style="fill: none; fill-opacity:0; stroke-width: 2; stroke: #000000" x1="264.636" y1="166.197" x2="277.364" y2="176.803"/>
    <line style="fill: none; fill-opacity:0; stroke-width: 2; stroke: #000000" x1="264.636" y1="176.803" x2="277.364" y2="166.197"/>
  </g>
  <g>
    <ellipse style="fill: #ffffff" cx="387.4" cy="169.1" rx="9" ry="7.5"/>
    <ellipse style="fill: none; fill-opacity:0; stroke-width: 2; stroke: #000000" cx="387.4" cy="169.1" rx="9" ry="7.5"/>
    <line style="fill: none; fill-opacity:0; stroke-width: 2; stroke: #000000" x1="381.036" y1="163.797" x2="393.764" y2="174.403"/>
    <line style="fill: none; fill-opacity:0; stroke-width: 2; stroke: #000000" x1="381.036" y1="174.403" x2="393.764" y2="163.797"/>
  </g>
  <g>
    <ellipse style="fill: #ffffff" cx="417.4" cy="169.1" rx="9" ry="7.5"/>
    <ellipse style="fill: none; fill-opacity:0; stroke-width: 2; stroke: #000000" cx="417.4" cy="169.1" rx="9" ry="7.5"/>
    <line style="fill: none; fill-opacity:0; stroke-width: 2; stroke: #000000" x1="411.036" y1="163.797" x2="423.764" y2="174.403"/>
    <line style="fill: none; fill-opacity:0; stroke-width: 2; stroke: #000000" x1="411.036" y1="174.403" x2="423.764" y2="163.797"/>
  </g>
  <g>
    <ellipse style="fill: #ffffff" cx="451.4" cy="169.1" rx="9" ry="7.5"/>
    <ellipse style="fill: none; fill-opacity:0; stroke-width: 2; stroke: #000000" cx="451.4" cy="169.1" rx="9" ry="7.5"/>
    <line style="fill: none; fill-opacity:0; stroke-width: 2; stroke: #000000" x1="445.036" y1="163.797" x2="457.764" y2="174.403"/>
    <line style="fill: none; fill-opacity:0; stroke-width: 2; stroke: #000000" x1="445.036" y1="174.403" x2="457.764" y2="163.797"/>
  </g>
  <g>
    <ellipse style="fill: #ffffff" cx="480.4" cy="169.1" rx="9" ry="7.5"/>
    <ellipse style="fill: none; fill-opacity:0; stroke-width: 2; stroke: #000000" cx="480.4" cy="169.1" rx="9" ry="7.5"/>
    <line style="fill: none; fill-opacity:0; stroke-width: 2; stroke: #000000" x1="474.036" y1="163.797" x2="486.764" y2="174.403"/>
    <line style="fill: none; fill-opacity:0; stroke-width: 2; stroke: #000000" x1="474.036" y1="174.403" x2="486.764" y2="163.797"/>
  </g>
  <g>
    <ellipse style="fill: #ffffff" cx="526.4" cy="169.1" rx="9" ry="7.5"/>
    <ellipse style="fill: none; fill-opacity:0; stroke-width: 2; stroke: #000000" cx="526.4" cy="169.1" rx="9" ry="7.5"/>
    <line style="fill: none; fill-opacity:0; stroke-width: 2; stroke: #000000" x1="520.036" y1="163.797" x2="532.764" y2="174.403"/>
    <line style="fill: none; fill-opacity:0; stroke-width: 2; stroke: #000000" x1="520.036" y1="174.403" x2="532.764" y2="163.797"/>
  </g>
  <g>
    <ellipse style="fill: #ffffff" cx="555.4" cy="169.1" rx="9" ry="7.5"/>
    <ellipse style="fill: none; fill-opacity:0; stroke-width: 2; stroke: #000000" cx="555.4" cy="169.1" rx="9" ry="7.5"/>
    <line style="fill: none; fill-opacity:0; stroke-width: 2; stroke: #000000" x1="549.036" y1="163.797" x2="561.764" y2="174.403"/>
    <line style="fill: none; fill-opacity:0; stroke-width: 2; stroke: #000000" x1="549.036" y1="174.403" x2="561.764" y2="163.797"/>
  </g>
  <g>
    <ellipse style="fill: #ffffff" cx="591.4" cy="169.1" rx="9" ry="7.5"/>
    <ellipse style="fill: none; fill-opacity:0; stroke-width: 2; stroke: #000000" cx="591.4" cy="169.1" rx="9" ry="7.5"/>
    <line style="fill: none; fill-opacity:0; stroke-width: 2; stroke: #000000" x1="585.036" y1="163.797" x2="597.764" y2="174.403"/>
    <line style="fill: none; fill-opacity:0; stroke-width: 2; stroke: #000000" x1="585.036" y1="174.403" x2="597.764" y2="163.797"/>
  </g>
  <g>
    <ellipse style="fill: #ffffff" cx="620.4" cy="169.1" rx="9" ry="7.5"/>
    <ellipse style="fill: none; fill-opacity:0; stroke-width: 2; stroke: #000000" cx="620.4" cy="169.1" rx="9" ry="7.5"/>
    <line style="fill: none; fill-opacity:0; stroke-width: 2; stroke: #000000" x1="614.036" y1="163.797" x2="626.764" y2="174.403"/>
    <line style="fill: none; fill-opacity:0; stroke-width: 2; stroke: #000000" x1="614.036" y1="174.403" x2="626.764" y2="163.797"/>
  </g>
  <g>
    <ellipse style="fill: #ffffff" cx="672.4" cy="170.1" rx="9" ry="7.5"/>
    <ellipse style="fill: none; fill-opacity:0; stroke-width: 2; stroke: #000000" cx="672.4" cy="170.1" rx="9" ry="7.5"/>
    <line style="fill: none; fill-opacity:0; stroke-width: 2; stroke: #000000" x1="666.036" y1="164.797" x2="678.764" y2="175.403"/>
    <line style="fill: none; fill-opacity:0; stroke-width: 2; stroke: #000000" x1="666.036" y1="175.403" x2="678.764" y2="164.797"/>
  </g>
  <g>
    <ellipse style="fill: #ffffff" cx="732.4" cy="170.1" rx="9" ry="7.5"/>
    <ellipse style="fill: none; fill-opacity:0; stroke-width: 2; stroke: #000000" cx="732.4" cy="170.1" rx="9" ry="7.5"/>
    <line style="fill: none; fill-opacity:0; stroke-width: 2; stroke: #000000" x1="726.036" y1="164.797" x2="738.764" y2="175.403"/>
    <line style="fill: none; fill-opacity:0; stroke-width: 2; stroke: #000000" x1="726.036" y1="175.403" x2="738.764" y2="164.797"/>
  </g>
  <g>
    <ellipse style="fill: #ffffff" cx="794.4" cy="170.1" rx="9" ry="7.5"/>
    <ellipse style="fill: none; fill-opacity:0; stroke-width: 2; stroke: #000000" cx="794.4" cy="170.1" rx="9" ry="7.5"/>
    <line style="fill: none; fill-opacity:0; stroke-width: 2; stroke: #000000" x1="788.036" y1="164.797" x2="800.764" y2="175.403"/>
    <line style="fill: none; fill-opacity:0; stroke-width: 2; stroke: #000000" x1="788.036" y1="175.403" x2="800.764" y2="164.797"/>
  </g>
  <g>
    <rect style="fill: #ffffff" x="204" y="214" width="609" height="40"/>
    <rect style="fill: none; fill-opacity:0; stroke-width: 4; stroke: #000000" x="204" y="214" width="609" height="40"/>
    <text font-size="12.8" style="fill: #000000;text-anchor:middle;font-family:sans-serif;font-style:normal;font-weight:normal" x="508.5" y="237.9">
      <tspan x="508.5" y="237.9">FOXI</tspan>
    </text>
  </g>
  <text font-size="13.5467" style="fill: #097e09;text-anchor:middle;font-family:sans-serif;font-style:oblique;font-weight:normal" x="436" y="53">
    <tspan x="436" y="53">C-band</tspan>
    <tspan x="436" y="69.9333">radar stations</tspan>
  </text>
  <text font-size="12.8" style="fill: #000000;text-anchor:start;font-family:sans-serif;font-style:normal;font-weight:normal" x="452" y="65">
    <tspan x="452" y="65"></tspan>
  </text>
  <text font-size="13.5467" style="fill: #097e09;text-anchor:middle;font-family:sans-serif;font-style:oblique;font-weight:normal" x="577.526" y="52.85">
    <tspan x="577.526" y="52.85">X-band</tspan>
    <tspan x="577.526" y="69.7833">radar stations</tspan>
  </text>
  <text font-size="13.5467" style="fill: #097e09;text-anchor:middle;font-family:sans-serif;font-style:oblique;font-weight:normal" x="730.524" y="69.85">
    <tspan x="730.524" y="69.85">Auto-tracking</tspan>
    <tspan x="730.524" y="86.7833">webcams</tspan>
  </text>
  <g>
    <line style="fill: none; fill-opacity:0; stroke-width: 2; stroke: #0000ff" x1="673" y1="278" x2="696" y2="278"/>
    <polygon style="fill: #0000ff" points="696,283 706,278 696,273 "/>
    <polygon style="fill: none; fill-opacity:0; stroke-width: 2; stroke: #0000ff" points="696,283 706,278 696,273 "/>
  </g>
  <g>
    <line style="fill: none; fill-opacity:0; stroke-width: 2; stroke: #ff0000" x1="673.5" y1="298.918" x2="696.5" y2="298.918"/>
    <polygon style="fill: #ff0000" points="696.5,303.918 706.5,298.918 696.5,293.918 "/>
    <polygon style="fill: none; fill-opacity:0; stroke-width: 2; stroke: #ff0000" points="696.5,303.918 706.5,298.918 696.5,293.918 "/>
  </g>
  <text font-size="12.8" style="fill: #000000;text-anchor:start;font-family:sans-serif;font-style:normal;font-weight:normal" x="713" y="282">
    <tspan x="713" y="282">m: manual entry</tspan>
  </text>
  <text font-size="12.8" style="fill: #000000;text-anchor:start;font-family:sans-serif;font-style:normal;font-weight:normal" x="712.5" y="303.1">
    <tspan x="712.5" y="303.1">a: auto-stream</tspan>
  </text>
  <rect style="fill: none; fill-opacity:0; stroke-width: 2; stroke: #929292" x="667" y="264" width="146" height="47"/>
</svg>
